<?xml version="1.0" standalone="no"?>
<!DOCTYPE svg PUBLIC "-//W3C//DTD SVG 1.1//EN" "http://www.w3.org/Graphics/SVG/1.1/DTD/svg11.dtd" >
<svg xmlns="http://www.w3.org/2000/svg">
<metadata>
This is a custom SVG webfont generated by Font Squirrel.
Copyright   : Copyright c Jos Buivenga 2004 All rights reserved
</metadata>
<defs>
<font id="webfontzMVa6eBD" horiz-adv-x="1130" >
<font-face units-per-em="2048" ascent="1638" descent="-410" />
<missing-glyph horiz-adv-x="632" />
<glyph unicode=" "  horiz-adv-x="632" />
<glyph unicode="&#x09;" horiz-adv-x="632" />
<glyph unicode="&#xa0;" horiz-adv-x="632" />
<glyph unicode="!" horiz-adv-x="538" d="M127 1454v47l18 10q20 12 52 25q29 10 61 10q52 0 86 -12t49 -37q18 -29 21 -57q4 -43 0 -78q-8 -66 -15 -94q-9 -43 -18 -111q-12 -92 -14 -123l-58 -723h-59l-74 1000q-2 43 -16 84q-10 31 -23 47zM168 84q0 47 32.5 78t78 31t75.5 -33q33 -37 33 -76q0 -41 -33 -78 q-31 -33 -76 -33t-77.5 33t-32.5 78z" />
<glyph unicode="&#x22;" horiz-adv-x="800" d="M82 1118q39 37 63 94q23 53 33 117q6 33 15 109q6 53 24 84q20 33 49 32h107l-23 -165q-31 -209 -186 -271q-29 -10 -51 -8q-27 4 -31 8zM410 1118q39 37 63 94q23 53 33 117q4 27 7 53.5t7 55.5q6 53 25 84q20 33 49 32h106l-22 -165q-31 -209 -186 -271q-29 -10 -52 -8 q-26 4 -30 8z" />
<glyph unicode="#" horiz-adv-x="1439" d="M92 395l14 131q0 -6 302 -8q16 188 26 266h-268q-31 0 -37 -2l14 131q0 -4 301 -8q18 209 19 305q0 68 -17 127q51 39 91 39q23 0 38 -10q12 -8 21 -35q6 -22 6 -43q0 -6 1 -23.5t1 -31.5q0 -59 -33 -328h271q18 215 18 305q0 49 -16 127q51 39 90 39q20 0 37 -10 q12 -8 20 -35q8 -29 8 -43q0 -6 1 -23.5t1 -31.5q0 -27 -32 -328h98h102h86q12 0 62 6q25 2 35 11q-6 -35 -17 -54q-12 -23 -30 -39q-16 -14 -41 -24q-29 -12 -47 -14l-54 -7q-18 -2 -57 -2h-57h-95l-6 -52t-8 -83q-10 -104 -14 -129h104h103h86q12 0 61 6q25 2 35 11 q-6 -35 -17 -54q-12 -23 -30 -39q-16 -14 -41 -24q-29 -12 -47 -15q-16 -2 -54 -6q-18 -2 -57 -2h-57h-99q-27 -260 -30 -379l-140 -30l48 409h-275q-25 -227 -31 -379l-139 -30q20 166 47 411h-264q-31 0 -37 -2zM528 518h275q0 10 4 41t11 95.5t13 127.5h-272z" />
<glyph unicode="$" horiz-adv-x="935" d="M129 1012q0 90 35 162q39 80 112 133q78 55 179 67q0 43 -9 142q55 10 58 10q29 0 41 -21q12 -23 10 -55q-2 -23 -2 -74q127 -10 207 -59q82 -51 82 -137q0 -37 -19 -78q-6 55 -88 94q-86 41 -184 47q0 -10 -1 -79.5t-1 -127t-1 -131.5t-1 -92l86 -53q34 -22 80 -55 q37 -27 75 -70q35 -37 58 -74q29 -45 41 -92q14 -57 14 -104q0 -141 -96 -250t-254 -133l4 -199h-100q0 150 2 190q-133 0 -215 58q-80 55 -80 127q0 39 24 69q12 -45 90 -82q80 -37 175 -36h6q0 94 1 209.5t2 178t1 95.5q-18 12 -29.5 19l-15.5 9.5t-8.5 6.5t-8.5 6t-15 10 t-28 19q-41 27 -53 40l-45 39q-33 29 -43 45q-6 10 -15.5 21.5t-19.5 26.5q-16 25 -28 55q-10 29 -17 57q-6 31 -6 66zM287 1067q0 -53 45 -102q47 -51 129 -101q0 311 -2 375q-82 -12 -125 -53q-47 -43 -47 -119zM545 535q-2 -59 2 -416q74 18 115 63q45 49 45 123 q0 66 -41 119q-35 45 -121 111z" />
<glyph unicode="%" horiz-adv-x="1632" d="M133 1024q0 -162 76 -246t194 -84q158 0 254 103q100 106 103 254q0 158 -78 241q-80 86 -201 86q-158 0 -252 -98q-96 -100 -96 -256zM270 1067q0 104 43 165.5t119 61.5q90 0 141 -75q53 -78 54 -205q0 -104 -52 -172q-49 -66 -122 -66q-86 0 -134 78q-49 80 -49 213z M287 0l712 1026q186 279 189 324q41 31 82 30q61 0 61 -41q0 -16 -12 -45q-12 -27 -27 -47q-18 -27 -32 -45l-11.5 -15t-9.5 -11.5t-4 -6.5l-20 -26l-66 -94.5l-100 -141.5l-371 -532q-187 -273 -246 -375h-145zM901 307q0 -162 76 -246t194 -84q158 0 254 103 q100 106 103 254q0 158 -78 241q-80 86 -201 87q-156 0 -252 -99q-96 -100 -96 -256zM1038 350q0 104 43 166t119 62q90 0 141 -76q53 -78 54 -205q0 -104 -52 -172q-49 -66 -122 -66q-86 0 -134 78q-49 80 -49 213z" />
<glyph unicode="&#x26;" horiz-adv-x="1552" d="M127 360q0 -74 29 -147q25 -61 82 -123q53 -55 131 -86q80 -31 172 -31q262 0 413 150q90 -70 189 -111q92 -39 178 -39q106 0 160 45q57 47 57 113q-68 -29 -123 -29q-135 0 -340 181q119 221 137 602h50q12 0 26.5 -1t16.5 -1q63 0 110 28.5t47 79.5l-4 41l-4 -6 q-2 -6 -22 -12q-18 -6 -46 -6h-282l-21 -29l9 -55q10 -61 10 -97q0 -287 -98 -477q-207 197 -398 488q35 20 53 32q35 25 86 68q61 53 103 98q43 49 78 119t35 133q0 117 -91 187q-94 72 -235 71q-182 0 -285 -94q-106 -96 -106 -246q0 -72 39 -182q40 -114 110 -233 q-123 -90 -194 -201q-72 -113 -72 -230zM315 475q0 154 119 248q201 -317 440 -535q-96 -78 -215 -77q-92 0 -174 53q-76 49 -125 137q-45 82 -45 174zM424 1274q0 80 51 125t137 45q94 0 147.5 -53.5t53.5 -145.5q0 -49 -20 -96q-18 -45 -50 -84q-25 -35 -67 -70l-64 -53 q-16 -12 -49 -33q-139 236 -139 365z" />
<glyph unicode="'" horiz-adv-x="473" d="M82 1118q39 37 63 94q23 53 33 117q6 33 15 109q6 53 24 84q20 33 49 32h107l-23 -165q-31 -209 -186 -271q-29 -10 -51 -8q-27 4 -31 8z" />
<glyph unicode="(" horiz-adv-x="673" d="M131 485q0 -244 68 -477q68 -231 182 -381q114 -147 240 -147q-8 0 -43 47q-29 37 -78 141q-31 66 -86 213q-45 123 -72 279q-29 168 -29 325q0 162 27 303q27 143 68 250q37 98 84 185q37 68 79 118q33 39 50 39q-137 0 -250 -129q-119 -135 -178 -333 q-62 -206 -62 -433z" />
<glyph unicode=")" horiz-adv-x="673" d="M55 -520q8 0 43 47q37 49 78 141q41 90 86 213t72 279q29 168 28 325q0 150 -28 303q-27 143 -68 250q-37 98 -84 185q-39 74 -78 118q-33 39 -49 39q137 0 250 -129q119 -135 178 -333q61 -205 62 -433q0 -244 -68 -477q-68 -231 -182 -381q-114 -147 -240 -147z" />
<glyph unicode="*" horiz-adv-x="821" d="M4 1112q8 37 16 51q14 25 27 37q16 16 39 25l43 14q14 4 51 8q45 4 51 4h56h14l-4 6q-121 221 -158 238q33 12 60 12q33 0 59 -14q29 -16 55 -45q14 -16 41 -53q15 -22 43 -68l9 -22l8 22q127 207 127 250v4q59 -49 59 -113q0 -29 -12 -65q-8 -25 -27 -62 q-12 -25 -37 -67l-14 -25l-6 -6h61h119q25 0 78 4q37 2 49 13q-6 -39 -22.5 -64t-38.5 -41q-16 -12 -56 -22q-20 -6 -61 -11q-18 -2 -68 -2h-59l8 -12q39 -63 68 -115l53 -84q20 -31 35 -39q-34 -12 -62 -12q-29 0 -53 12q-27 14 -43 27q-27 23 -41 45q-25 37 -31 51 q-2 4 -14 23.5t-20 36.5l-9 24l-10 -24l-49 -84q-6 -12 -19.5 -35l-19.5 -33l-25 -53q-8 -18 -8 -35v-4q-59 49 -59 115q0 23 14 69q12 41 27 64q4 8 17.5 31.5l23.5 39.5q-27 2 -111 2q-149 0 -174 -18z" />
<glyph unicode="+" horiz-adv-x="962" d="M113 457v131q0 -8 299 -8v26v103v84q0 12 -6 61q-2 25 -11 35q51 10 66 10q31 0 51 -14q16 -12 20 -35q6 -43 7 -53v-62v-57q0 -18 -1 -51t-1 -47h43h102q18 0 47 1t39 1q29 0 61 4q25 2 35 10q-6 -33 -18 -53q-16 -29 -29 -39q-16 -14 -41 -25q-29 -12 -47 -14 q-16 -2 -53 -6q-18 -2 -58 -2h-57h-26q-2 -66 -3 -281q0 -31 3 -37h-132q8 0 9 318h-111q-23 0 -56.5 1t-45.5 1h-49q-31 0 -37 -2z" />
<glyph unicode="," horiz-adv-x="421" d="M25 -246q135 129 135 226q0 90 -60 90q-6 49 27 86t78 37q57 0 88 -35q29 -31 29 -97q0 -80 -68 -178q-66 -96 -193 -178z" />
<glyph unicode="-" horiz-adv-x="616" d="M59 436v131q0 -8 222 -8h102h86q12 0 61 6q25 2 35 10q-6 -35 -18 -55q-14 -25 -29 -37q-16 -14 -41 -24q-29 -12 -47 -15q-16 -2 -53 -6q-18 -2 -58 -2h-57h-90q-18 0 -35.5 1t-28 1h-12.5q-31 0 -37 -2z" />
<glyph unicode="." horiz-adv-x="421" d="M102 84q0 43 33 76t78 33q43 0 76 -33t33 -76q0 -45 -33 -78t-76 -33q-45 0 -78 33t-33 78z" />
<glyph unicode="/" horiz-adv-x="593" d="M-53 -500q176 702 291 1245q108 513 98 596q6 10 53 31q43 18 84 19q45 0 47 -54q2 -23 -4 -57q-2 -10 -16 -68q-10 -41 -11 -43q0 -4 -40 -172l-91 -374l-102 -441l-94 -420q-45 -215 -53 -262h-162z" />
<glyph unicode="0" horiz-adv-x="1163" d="M102 567q0 -150 35 -270q33 -117 96 -188q59 -68 138 -103q80 -35 164 -35q33 0 43 2q229 20 358 199q127 176 127 442q0 150 -33 260q-35 119 -94 187q-61 70 -139 106q-80 37 -172 37q-158 0 -279 -84t-182.5 -227.5t-61.5 -325.5zM281 651q0 168 71 289 q70 119 174 135h11q4 0 8 1l4 1q141 0 237 -151q94 -150 95 -389q0 -190 -84 -324q-83 -132 -197 -135q-92 0 -164 76q-74 76 -112.5 204.5t-42.5 292.5z" />
<glyph unicode="1" horiz-adv-x="657" d="M41 1057l348 151h31l51 -86l-2 -67q0 -16 -1 -38t-2 -34t-1 -18l4 -811q0 -72 16 -154h-202v8l6 864q4 104 -37 140l-174 -56z" />
<glyph unicode="2" horiz-adv-x="915" d="M82 0h596q92 0 131 35q37 35 37 82q0 27 -6 47q-20 -20 -54 -23q-25 -2 -190 -2h-350l41 33q18 14 98 86q66 59 129 131q68 77 129 160q59 82 100 180q39 96 39 184q0 59 -20 107q-25 55 -62 92q-45 43 -114 68q-74 25 -170 24q-82 0 -160 -22q-72 -20 -121 -63.5 t-49 -100.5q0 -63 55 -84q53 -20 101 24v15q0 51 45 90t108 39q89 0 135 -74q45 -72 45 -178q0 -88 -51 -203q-51 -113 -123 -207q-47 -61 -145 -172q-71 -80 -123 -129l-51 -49v-90z" />
<glyph unicode="3" horiz-adv-x="899" d="M41 -80q41 -4 53 -4q82 0 162 18.5t155.5 59.5t120.5 112q49 78 52 170q0 55 -9 95q-10 45 -24 71q-18 33 -39 54q-29 29 -43 36q-27 14 -51 23l-24.5 8t-26.5 8l-52 9l23 55l4 2q90 43 152 119q59 74 59 159q0 49 -14 86q-14 39 -56 70q-40 31 -98 31q-68 0 -113 -39 q-47 -41 -41 -105q-37 -29 -75 -28q-31 0 -58 26q-25 25 -24 62q0 82 94 133q96 53 221 53q88 0 166 -22q72 -20 115 -62q41 -37 63 -84q20 -41 21 -90q0 -89 -68 -166q-70 -78 -184 -139q23 -2 84 -18q25 -6 78 -33q39 -18 69 -58q31 -37 47 -88q18 -55 19 -129 q0 -98 -41 -184q-37 -78 -107 -137q-53 -45 -153 -92q-84 -39 -174 -56q-92 -16 -174 -16q-35 0 -58 14q-25 16 -33 31q-14 27 -14 31z" />
<glyph unicode="4" horiz-adv-x="1024" d="M61 233q43 127 160 347q123 229 242 403q129 186 186 225h125l-4 -86l-2 -67q0 -16 -1 -38t-2 -34t-1 -18v-623q96 0 154 4q41 2 59 21q37 -162 -162 -164h-49q0 -172 2 -217q0 -72 16 -154h-202v8l2 363h-496zM242 342h342l4 506q4 86 14 156q-61 -66 -182 -285 q-117 -211 -178 -377z" />
<glyph unicode="5" horiz-adv-x="905" d="M92 -80q45 -4 53 -4q76 0 154 23q68 20 133 65q63 45 100 121q39 80 41 172q0 72 -18 131q-20 63 -43 94q-33 43 -63 64q-35 25 -72 37q-33 12 -72 18q-57 10 -110 6l-41 -4l-19 33l33 475l33 27h331h82h60q8 0 22.5 1t18.5 1q12 0 28 4q4 0 19 8q8 4 14 10q6 -23 6 -41 t-6 -42.5t-22 -39.5q-23 -18 -54 -28q-37 -12 -86 -13h-340l-12 -288q526 0 526 -414q0 -96 -34 -184q-33 -84 -92 -144q-61 -61 -134 -98q-88 -45 -159 -62q-82 -18 -168 -18q-35 0 -58 14q-29 18 -34 31q-10 20 -13 31z" />
<glyph unicode="6" horiz-adv-x="1103" d="M141 569q0 -123 23 -215q25 -100 72 -188q49 -90 129 -141q82 -51 188 -51.5t188 40.5q88 43 142 113q55 71 85.5 160t30.5 190q0 186 -96 279q-95 92 -239 92q-170 0 -316 -107q8 127 43 230q33 100 84 159q47 55 109 89q59 31 125 30q74 0 155 -35q84 -35 111 -77 q6 23 6 59q0 49 -31 82q-33 35 -80 53q-55 20 -100 29q-47 8 -102 8q-51 0 -101 -12q-47 -12 -102 -41q-49 -27 -100 -74q-45 -43 -89 -106q-33 -49 -69 -146q-31 -80 -49 -188q-17 -97 -17 -232zM344 633v53q33 20 100 37q70 16 117 16q117 0 182 -90q63 -88 64 -252 q0 -152 -53.5 -235.5t-151.5 -83.5q-68 0 -123 51q-51 49 -80 133q-29 86 -41 178q-14 109 -14 193z" />
<glyph unicode="7" horiz-adv-x="849" d="M72 1157.5q0 -22.5 12 -53.5t39 -51.5t90 -36.5q66 -16 147 -17q98 0 162 7q65 6 80 12l16 6l-407 -944q-51 -121 -80 -162q-31 -43 -57 -55q22 -15 49 -25q18 -6 61 -6q34 0 68 31q37 35 57 88l514 1192l-32 35h-469h-82h-60q-8 0 -22.5 1t-18.5 1q-12 0 -28 4 q-4 0 -19 8q-8 4 -14 10q-6 -22 -6 -44.5z" />
<glyph unicode="8" horiz-adv-x="1046" d="M133 291q0 82 29 155q29 72 74 121q53 55 83 78q53 37 80 51q-102 80 -170 164q-61 78 -61 168q0 154 104 246q106 94 283 94q145 0 235.5 -71.5t90.5 -186.5q0 -53 -19 -102q-16 -43 -45 -86q-23 -35 -61 -70q-31 -29 -62 -51l-51 -33l94 -72q27 -20 82 -71 q53 -51 74 -80q31 -45 45 -82q18 -45 18 -94q0 -170 -131 -283t-323 -113q-45 0 -100.5 10.5t-100.5 32.5q-47 23 -86 60q-37 35 -59 90q-23 57 -23 125zM285 332q0 -113 67 -180q66 -66 168 -70q94 0 168 65q76 68 76 150q0 43 -16 76q-20 43 -46 71q-18 23 -67 68 q-41 39 -80 66l-88 67q-182 -98 -182 -313zM348 1096q0 -70 60 -135q51 -55 170 -146q33 16 49 31q22 18 49 49q25 27 41 74q16 45 16 98q0 94 -53 147q-51 51 -148 52q-88 0 -135 -45q-49 -45 -49 -125z" />
<glyph unicode="9" horiz-adv-x="1120" d="M125 735q-8 -193 80 -297q88 -102 231 -108q80 -6 172 22.5t164 81.5q-25 -260 -127 -387q-100 -125 -246 -119q-84 6 -149 37q-76 35 -103 76q-6 -25 -6 -47q-4 -47 23 -82q27 -37 72 -57q31 -14 96 -31q43 -10 102 -14q74 -2 144 18q74 23 139 74q68 53 125 139 q55 83 92 215q35 127 45 299q6 109 -14 225q-18 108 -62 203q-39 88 -125 154q-80 61 -186 67q-102 6 -188.5 -30.5t-145.5 -102.5q-61 -68 -94 -151t-39 -185zM317 825q6 135 64 207q57 74 149 68q72 -2 125 -64q53 -59 78 -153q29 -115 37 -193q10 -98 6 -201 q-47 -25 -112.5 -39t-122.5 -10q-115 4 -174 109q-59 104 -50 276z" />
<glyph unicode=":" horiz-adv-x="526" d="M156 86q0 47 34 82q33 33 82.5 33t82 -33t32.5 -82q0 -51 -32.5 -84t-82 -33t-82.5 33q-34 35 -34 84zM156 676q0 47 34 82q33 33 82.5 33t82 -33t32.5 -82t-33 -82q-35 -35 -82 -35t-81.5 35t-34.5 82z" />
<glyph unicode=";" horiz-adv-x="526" d="M47 -246q135 129 135 226q0 90 -59 90q-6 49 27 86q35 37 77 37q57 0 88 -35q29 -31 29 -97q0 -80 -68 -178q-66 -96 -192 -178zM123 670q0 43 32.5 75.5t77.5 32.5q43 0 76 -32.5t33 -75.5q0 -41 -33 -78q-31 -33 -76 -33q-47 0 -77 33q-33 37 -33 78z" />
<glyph unicode="&#x3c;" horiz-adv-x="753" d="M80 506l45 -45l272 -322q39 -45 105 -65q72 -23 127 -23h30q-25 10 -43 27q-27 23 -34 33l-11 14l-231 313q-27 31 -45 45l-27 23l27 20q27 25 41 43l227 303l15 19q14 18 38 39q23 20 43 26h-30q-57 0 -131 -22q-63 -18 -109 -68l-268 -319z" />
<glyph unicode="=" horiz-adv-x="980" d="M113 293v131q0 -8 467 -8h102q18 0 47 1t39 1q29 0 61 4q25 2 35 10q-6 -33 -18 -53q-16 -29 -29 -39q-16 -14 -41 -25q-29 -12 -47 -14q-16 -2 -53 -6q-18 -2 -58 -2h-57q-4 0 -32.5 1t-78 1h-102.5h-198q-31 0 -37 -2zM113 600v131q0 -8 467 -8h102q18 0 47 1t39 1 q29 0 61 4q25 2 35 10q-6 -35 -18 -55q-14 -25 -29 -37q-16 -14 -41 -24q-29 -12 -47 -15q-16 -2 -53 -6q-18 -2 -58 -2h-57h-213q-55 0 -102 1t-72 1h-24q-31 0 -37 -2z" />
<glyph unicode="&#x3e;" horiz-adv-x="753" d="M82 51q25 10 43 27q20 18 33 33l12 14l231 313q18 23 45 45l27 23l-27 20q-27 25 -40 43l-228 303l-14 19q-14 18 -39 39q-23 20 -43 26h31q55 0 129 -22q68 -20 110 -68l271 -319q6 -8 24 -27l15 -14l-46 -45l-272 -322q-39 -45 -104 -65q-72 -23 -127 -23h-31z" />
<glyph unicode="?" horiz-adv-x="847" d="M33 1296q0 115 100 182.5t250 67.5q178 0 281 -104q100 -102 100 -275q0 -86 -47 -176q-45 -86 -115 -160l-133 -137q-68 -68 -113 -137q-47 -72 -47 -131q0 -55 47 -92l-41 -23q-143 63 -143 183q0 59 23 120q20 55 59 111q25 35 82 100l88 99q76 88 82 94q37 45 59 98 q23 51 23 98q0 225 -211 226q-63 0 -111 -39q-49 -41 -49 -109q0 -20 10 -57q-27 -43 -88 -43q-55 0 -80 33q-26 36 -26 71zM205 84q0 43 32.5 76t77.5 33t76 -33q33 -37 33 -76q0 -41 -33 -78q-31 -33 -76 -33q-47 0 -77 33q-33 37 -33 78z" />
<glyph unicode="@" horiz-adv-x="1845" d="M111 406q0 193 69 364q70 174 189 301q121 131 280 203q162 74 342 74q205 0 371 -93q168 -92 262 -258q96 -168 96 -366q0 -178 -63 -332q-63 -156 -180 -256q-114 -98 -252 -98q-89 0 -142 55q-51 53 -41 174q-47 -96 -124 -147q-74 -49 -148 -50q-123 0 -211 121 q-90 125 -90 283q0 137 47 262q45 121 127 209q80 86 188 135q106 49 226 49q94 0 188 -30q-12 -109 -14 -181q-8 -254 -8 -268q0 -45 -1 -95t-2 -76t-1 -38v-84q0 -29 4 -74q2 -29 14 -59q10 -29 29 -41q20 -14 53 -14q66 0 131 67q61 66 102 183q41 119 41 252 q0 172 -86 323.5t-237.5 237.5t-327.5 86q-195 0 -350 -101q-154 -100 -244 -276q-88 -174 -88 -393q0 -287 147.5 -483.5t389.5 -239.5q20 -4 49 -4q55 0 78 12q-35 -121 -189 -121q-127 0 -243 68q-113 66 -199 176q-84 111 -133 252q-49 144 -49 291zM653 416 q0 -119 64 -203q66 -88 151 -88q92 0 162 94l27 727h-19q-2 0 -6 -1t-13 -2t-18 -1q-31 -3 -55 -12q-31 -12 -63 -27q-41 -18 -66 -41q-28 -25 -61 -67q-33 -41 -54 -93q-18 -43 -34 -124q-15 -70 -15 -162z" />
<glyph unicode="A" horiz-adv-x="1206" d="M10 0l465 1221q12 37 31 69q14 25 39 45q12 10 45 27q29 14 43 16q33 6 45 8l22.5 4.5t16.5 4.5q12 -55 49 -174l360 -1057q25 -84 72 -164h-248q-6 49 -14 70l-137 401h-475l-156 -444q-4 -8 -4 -17q0 -4 -1 -7l-1 -3h-152zM358 569h406l-199 584z" />
<glyph unicode="B" horiz-adv-x="1136" d="M174 1313l14 35l363 10h24q85 0 150 -21q80 -25 125 -67q47 -43 72 -96q25 -51 24 -109q0 -90 -53 -166q-51 -72 -145 -129q66 -20 110 -45q43 -25 90 -72q45 -45 66 -102q23 -63 22 -137q0 -186 -133 -301q-131 -113 -354 -113h-324l2 139v946q0 33 -4 82q-4 41 -8 58 q-4 14 -12 39q-4 14 -15 28q0 2 -6 9.5t-8 11.5zM432 702q-1 -160 -1 -267q0 -220 5 -337h131q145 0 215 72q72 76 72 176q0 166 -92 256q-94 90 -244 96zM434 797h109q70 0 137 -13q92 88 92 224q0 109 -65 174q-64 64 -156 63h-8l-101 -2q0 -160 -2 -219q-6 -221 -6 -227z " />
<glyph unicode="C" horiz-adv-x="1245" d="M106 645q0 213 82 377q84 170 230 258q151 92 344 92q127 0 248 -51q117 -49 151 -119q0 -35 -41 -100.5t-88 -85.5l-33 26q0 18 -16 56q-12 29 -45 67q-29 35 -82 59.5t-119 24.5q-80 0 -149 -28q-72 -29 -115 -76q-53 -57 -80 -115q-33 -72 -47 -141.5t-14 -155.5 q0 -117 28 -231q29 -111 84 -199q55 -86 146 -139q88 -51 201 -51q96 0 206 53q109 53 160 145q8 -14 8 -43q0 -90 -63 -155q-66 -68 -168 -105q-98 -35 -234 -35q-143 0 -254 52q-115 53 -188 141q-72 86 -113 213q-39 119 -39 266z" />
<glyph unicode="D" horiz-adv-x="1384" d="M174 1313l14 35l463 10h20q83 0 169 -23q94 -25 172 -76t139 -128.5t94 -182.5q35 -111 35 -233q0 -143 -45 -283q-41 -129 -123 -225t-197 -152q-117 -55 -256 -55h-434q2 23 2 96v43v930q0 66 -2 88q-4 39 -14 80q-12 45 -37 76zM432 508q0 -230 6 -399h246 q68 0 135 36q70 39 119 99q52 65 86 159q33 92 33 205v16q0 171 -64 310q-70 152 -182 231q-110 78 -236 79q-9 0 -18 -1l-115 -4q0 -8 -6 -291q-4 -188 -4 -440z" />
<glyph unicode="E" horiz-adv-x="1024" d="M174 1313l14 35h308l350 6q25 -29 33 -76q9 -49 8 -81v-15q-4 -45 -15 -56h-38q-10 47 -70 78q-63 33 -146 35l-174 6q-14 -227 -14 -500h322q29 0 47 6.5t22 14.5l6 6q4 0 4 -41q0 -18 -8 -43q-6 -16 -14 -29q-8 -10 -29 -20q-18 -9 -30 -12q-14 -4 -35 -6 q-16 -2 -35 -3h-33h-51q-16 0 -46 1.5t-44 1.5h-78q-1 -51 -1 -106q0 -166 7 -374l4 -12h389q29 0 47 6q12 4 23 15l6 6q4 0 4 -41q0 -31 -8 -49q-8 -16 -25 -31q-18 -14 -32 -21q-20 -8 -39 -10q-33 -4 -41 -4h-39h-498l2 139v946q0 33 -4 82q-4 41 -8 58q-4 14 -12 39 q-4 14 -15 28q0 2 -6 9.5t-8 11.5z" />
<glyph unicode="F" horiz-adv-x="970" d="M174 1313l14 35h310l350 6q25 -29 33 -76q9 -49 8 -81v-15q-4 -45 -15 -56h-38q-10 47 -70 78q-63 33 -145 35l-177 6q-14 -227 -14 -500h322q29 0 47 6.5t22 14.5l6 6q4 0 4 -41q0 -18 -8 -43q-6 -16 -14 -29q-8 -10 -29 -20q-18 -9 -30 -12q-14 -4 -35 -6 q-16 -2 -35 -3h-33h-51q-16 0 -46 1.5t-44 1.5h-78q-1 -51 -1 -106q0 -166 7 -374q0 -92 17 -141h-226l2 139v946q0 33 -4 82q-4 41 -8 58q-4 14 -12 39q-4 14 -15 28q0 2 -6 9.5t-8 11.5z" />
<glyph unicode="G" horiz-adv-x="1320" d="M106 645q0 213 82 377q84 170 230 258q151 92 344 92h2q127 0 248 -51q117 -49 151 -119q0 -35 -41 -100.5t-88 -85.5l-33 26q0 18 -16 55.5t-45 67.5q-33 37 -84 60q-55 25 -119 24q-176 0 -286.5 -129t-116.5 -370q0 -115 26 -232q23 -98 70 -182q45 -78 100 -129 q63 -57 123 -80q63 -25 133 -25q37 0 115 17l74 14v158q0 70 -4 98q-6 41 -15 62q-2 4 -7 18t-9 20q-8 16 -18 27l14 35l18 6q31 10 54 14q33 6 69 7q61 0 117 -25q-10 -184 -14 -324l2 -186l-58 -10q-268 -59 -454 -60q-113 0 -211 45q-96 43 -180 132q-78 80 -125 212 q-48 131 -48 283z" />
<glyph unicode="H" horiz-adv-x="1544" d="M174 1313l14 35l45 14q45 12 97 12q65 0 116 -24q-14 -291 -20 -615h690q2 100 2 352q0 55 -6 99q-6 49 -12 61q-2 4 -7.5 17.5t-9.5 21.5q-8 16 -18 27l14 35l17 6q31 10 53 14q35 6 70 6q63 0 118 -24q-20 -438 -20 -809q0 -492 22 -541h-219q-6 33 -6 119v80 q0 23 1 88t1 110v232h-690v-88q0 -492 23 -541h-226q4 180 4 1087q0 55 -6 99q-6 49 -12 61q-2 4 -7 17.5t-9 21.5q-9 17 -19 27z" />
<glyph unicode="I" horiz-adv-x="651" d="M174 1315l14 35l45 14q45 12 97 12q65 0 116 -24q-20 -438 -20 -811q0 -492 23 -541h-226q4 180 4 1090q0 58 -6 98q-8 51 -12 61q-2 4 -7 18.5t-9 20.5q-9 17 -19 27z" />
<glyph unicode="J" horiz-adv-x="641" d="M-231 -252q0 37 26 64q25 25 72 24q20 0 45 -6q12 -84 106 -84q117 0 162 92q47 94 47 289q0 852 -4 963q0 58 -6 98q-8 51 -12 61q-2 4 -7 18.5t-10 20.5q-8 16 -18 27l14 35l45 14q45 12 97 12q65 0 116 -24q-20 -438 -20 -811q0 -12 1 -82t1 -131v-207q0 -88 -31 -184 q-29 -86 -76 -144q-49 -57 -112 -100q-59 -41 -131 -60q-76 -20 -137 -20q-80 0 -123 41q-45 43 -45 94z" />
<glyph unicode="K" horiz-adv-x="1187" d="M174 1315l14 35l45 14q45 12 97 12q65 0 116 -24q-14 -299 -20 -639l424 467q45 45 45 96q0 14 -10 39l14 35q57 23 139 22q94 0 115 -20q-47 -84 -74 -115q-59 -70 -143 -156l-322 -325q39 -49 201 -269l262 -352q102 -133 113 -135h-285q-90 143 -221 334 q-127 182 -211 278l-47 58v-129q0 -492 23 -541h-226q4 180 4 1090q0 58 -6 98q-8 51 -12 61q-2 4 -7 18.5t-9 20.5q-9 17 -19 27z" />
<glyph unicode="L" horiz-adv-x="962" d="M174 1315l14 35l45 14q45 12 97 12q65 0 116 -24q-20 -438 -20 -811q0 -317 6 -428h236q89 0 147 30q57 31 68 78h39q16 -18 15 -71q0 -17 -1 -37q-6 -80 -39 -113h-674q4 180 4 1090q0 58 -6 98q-8 51 -12 61q-2 4 -7 18.5t-9 20.5q-9 17 -19 27z" />
<glyph unicode="M" horiz-adv-x="1841" d="M199 1315l14 35q84 27 141 26q86 0 129 -30q35 -139 203 -558q166 -416 248 -587l420 1075q12 27 36.5 45t61.5 25q6 0 35 6t47 8q33 4 94 8q-4 -66 -4 -84v-102q0 -94 -2 -150q-2 -88 -2 -188q0 -302 14 -723q4 -84 15 -121h-226l2 123q2 117 2 237t-2 246 q-2 145 -8 350q0 35 -2 66t-2 57l-43 -133l-350 -815l-55 -174l-86 18q-35 6 -64 25q-25 16 -45 43q-14 20 -27 47q-8 18 -14 41l-338 830q-6 14 -35 118q4 -74 4 -135q-4 -236 -7 -443.5t-5 -297.5t-2 -97q0 -76 8 -106h-149l4 33q18 315 31 684q10 287 14 520 q-37 66 -55 78z" />
<glyph unicode="N" horiz-adv-x="1546" d="M182 1315l15 35q61 24 98 23q14 0 24 -3l807 -928q27 -27 52 -80l24 -51l-8 51q-6 51 -6 78q4 0 4 654q0 158 -53 221l14 35q37 25 102 24q59 0 93 -22q-25 -524 -25 -961q0 -213 10 -391h-112l-779 891l-39 51q-33 45 -45 76q6 -39 7 -90q0 -84 -2.5 -151.5t-2.5 -151.5 q0 -463 21 -625h-148v33q2 178 3 731v330q0 92 -11 131q-12 47 -43 90z" />
<glyph unicode="O" horiz-adv-x="1390" d="M100 651q0 -139 29 -241q31 -111 80 -191q47 -76 119 -135q70 -57 141.5 -84t151.5 -27q199 0 350 96.5t231 260.5q80 166 84 368q0 162 -43 291q-43 127 -119 213q-72 82 -172 125q-102 45 -211 45q-133 0 -256 -53q-115 -49 -202 -148q-84 -92 -133 -229 q-50 -135 -50 -291zM322 717q0 147 45 264q47 125 125 193q82 72 178 71q106 0 194 -82q90 -84 146 -225q53 -135 53 -309q0 -137 -45 -267q-43 -125 -123 -194q-82 -72 -176 -72q-111 0 -201 88q-90 86 -143 232q-53 143 -53 301z" />
<glyph unicode="P" d="M172 1313l14 35l369 12h23q76 0 127 -10q66 -12 120 -41q63 -31 105 -76q45 -47 71 -121q29 -76 29 -170q0 -123 -67.5 -221t-178 -153.5t-245.5 -55.5q-53 0 -109 12q10 -455 19 -524h-224v33q0 12 1 93t1 150v269v168q0 41 1 96t1 72q0 86 -2 141q-4 90 -8 129 q-8 61 -16 94q-13 46 -31 68zM430 633q37 -18 129 -19q121 0 205 78t84 205q0 90 -29 164q-28 71 -74 110q-45 39 -96 58q-48 17 -89 17q-7 0 -13 -1l-111 -4q-6 -74 -6 -547v-61z" />
<glyph unicode="Q" horiz-adv-x="1396" d="M100 651q0 -139 29 -241q31 -111 80 -191q47 -76 119 -135q70 -57 141.5 -84t151.5 -27h10q2 0 5 1l3 1q23 -166 135 -264q114 -98 258 -98q96 0 158 33q57 31 110 102q-20 -4 -38 -4q-106 0 -201 25q-98 25 -176 81q-86 61 -117 140q233 49 372.5 243.5t145.5 464.5 q0 162 -43 291q-43 127 -119 213q-72 82 -172 125q-102 45 -211 45q-133 0 -256 -53q-115 -49 -202 -148q-84 -92 -133 -229q-50 -135 -50 -291zM322 717q0 147 45 264q47 125 125 193q82 72 178 71q106 0 194 -82q90 -84 146 -225q53 -135 53 -309q0 -137 -45 -267 q-43 -125 -123 -194q-82 -72 -176 -72q-111 0 -201 88q-90 86 -143 232q-53 143 -53 301z" />
<glyph unicode="R" horiz-adv-x="1216" d="M172 1313l14 35q109 2 207.5 5t139 4t45.5 1q76 0 127 -10q53 -10 120 -41q61 -28 105 -74q45 -47 71 -121q29 -76 29 -170q0 -131 -78 -237q-78 -104 -204 -154q25 -12 235 -272q209 -258 236 -279h-277q-20 43 -76 123q-41 59 -104 133l-115 135l-108 121 q-53 0 -109 12q10 -455 19 -524h-224v33q0 12 1 93t1 150v269v168q0 41 1 96t1 72q0 86 -2 141q-4 90 -8 129q-8 61 -16 94q-13 46 -31 68zM430 633q37 -18 129 -19q121 0 205 78t84 205q0 92 -29 166q-28 71 -74 111q-39 35 -96 55q-45 17 -89 17q-7 0 -13 -1l-111 -4 q-6 -74 -6 -547v-61z" />
<glyph unicode="S" horiz-adv-x="980" d="M113 180q0 29 22 68q12 -45 110.5 -88t194.5 -43q45 0 92 10q45 10 80 29q41 23 62 57q23 39 22 92q0 51 -32 105q-31 47 -82 90q-41 33 -113 80l-123 84q-68 47 -113 92q-51 51 -81 114q-33 70 -33 142q0 70 24 133q25 66 70 117q47 53 121 84q78 33 164 32 q77 0 147 -18q78 -20 103 -33l71 -41q10 -31 10 -67q0 -47 -10 -86q-12 -47 -35 -70l-39 8q-23 70 -73 115q-53 47 -103 65q-43 16 -94 17q-78 0 -137 -45q-61 -46 -62 -129q0 -55 33 -103q33 -49 88 -88q49 -35 121 -80q100 -63 131 -84q70 -49 119 -96q53 -51 88 -123 q35 -74 35 -155q0 -164 -123 -279q-121 -113 -319 -113q-133 0 -234 64q-102 65 -102 143z" />
<glyph unicode="T" horiz-adv-x="1105" d="M20 1180q2 -39 15 -54h39q6 47 65 78q57 31 150 31h157q8 -43 9 -156l2 -323q1 -89 1 -196q0 -151 -3 -527v-33h223q-12 74 -12 90q-2 53 -2 223v297q0 53 1 149.5t1 141.5q0 55 1 97t2 70t1 69v98h157q90 0 149.5 -30.5t65.5 -78.5h39q8 12 13 54q1 16 1 31q0 31 -5 63 q-8 49 -41 86l-283 -12h-416l-282 12q-33 -37 -41 -86q-7 -41 -7 -74q-1 -10 0 -20z" />
<glyph unicode="U" horiz-adv-x="1443" d="M168 1315l14 35l45 14q47 12 97 12q65 0 116 -24q-10 -283 -10 -897q0 -90 21 -152q18 -57 55 -100q29 -33 76 -58q51 -27 82 -30q37 -6 79 -6q151 0 252 79q98 78 109 195q8 0 8 711q0 158 -53 221l14 35q37 25 103 24q59 0 92 -22q-20 -422 -21 -908q0 -205 -139 -340 q-135 -133 -383 -133q-89 0 -160 13q-70 12 -131 43q-63 31 -106 84t-68 131q-27 84 -29 186q-10 434 -10 662q0 55 -6 98q-6 49 -12 61q-2 4 -7.5 18.5t-9.5 20.5q-8 17 -18 27z" />
<glyph unicode="V" horiz-adv-x="1280" d="M31 1313q10 -4 26 -23q10 -12 54 -94q35 -66 69 -178l318 -887q10 -45 49 -96q31 -43 100 -60l86 -18l55 174l398 944q68 166 74 273q-41 29 -107 28q-61 0 -125 -26l-14 -35q43 -45 43 -115q0 -58 -31 -135l-278 -713q-12 -27 -31 -96l-15 -55q-72 162 -215 569 q-139 391 -178 569q-37 37 -123 37q-78 0 -141 -28z" />
<glyph unicode="W" horiz-adv-x="1898" d="M31 1313q10 -4 26 -23q10 -12 54 -94q35 -66 69 -178l287 -887q12 -49 47 -96q31 -43 102 -60l86 -18l56 174l209 561l182 -561q12 -49 47 -96q31 -43 102 -60l86 -18l56 174l360 944q59 152 74 273q-43 20 -119 20q-74 0 -113 -20l-14 -35q43 -47 43 -115 q0 -59 -31 -133l-241 -713q-18 -45 -31 -96l-12 -55q-61 135 -191 553q-135 436 -168 585q-37 37 -125 37q-82 0 -145 -28l-14 -35q10 -4 26 -23q10 -12 54 -94q35 -66 69 -178l39 -121l-184 -545q-18 -45 -31 -96l-12 -55q-61 135 -191 553q-135 436 -168 585 q-37 37 -125 37q-82 0 -145 -28z" />
<glyph unicode="X" horiz-adv-x="1077" d="M33 0l71 100l355 559l-195 361l-90 166q-39 68 -53 84q-23 25 -58 43l15 35q63 29 141 28q86 0 123 -37q47 -106 49 -108q18 -47 68 -137l145 -265l43 78l107 174q4 6 28 47q12 20 27 56q12 31 12 57q0 45 -22 72l14 35q51 29 115 28q72 0 116 -28q-18 -104 -137 -281 l-239 -354l325 -592q25 -41 41 -62q25 -31 39 -45l17 -14h-273l-289 537l-59 -103l-209 -323q-27 -53 -33 -72l-12 -39h-182z" />
<glyph unicode="Y" horiz-adv-x="1062" d="M10 1313l15 35q61 29 143 28q86 0 121 -37q47 -119 143 -303q94 -184 154 -278l10 26l25 50l170 301q26 48 26 93q0 44 -24 85l14 35q63 29 115 28q47 0 108 -28q0 -35 -41 -129q-45 -102 -78 -152l-252 -405q0 -6 -1 -53.5t-1 -88.5v-168q0 -252 17 -352h-223v33 q0 25 1 92.5t1 107.5v150q0 211 -2 233q-16 16 -43 64l-197 344l-57 104q-41 76 -43 80q-12 22 -31 49q-18 29 -33 37q-15 10 -37 19z" />
<glyph unicode="Z" horiz-adv-x="1157" d="M31 41l53 63l680 1057l61 70h-194h-269q-92 0 -149 -31q-59 -31 -66 -78h-38q-9 12 -13 56q-1 17 -1 33q0 33 5 65q8 53 41 88l283 -12h678l6 -43l-23 -27q-20 -25 -28 -39l-672 -1044l-57 -66h235h281q90 0 149.5 31t65.5 78h39q9 -12 12 -56q1 -17 1 -33q0 -33 -5 -65 q-8 -53 -41 -88h-283h-745z" />
<glyph unicode="[" horiz-adv-x="505" d="M57 -141v1624h338v-99h-166v-1427h166v-98h-338z" />
<glyph unicode="\" horiz-adv-x="727" d="M10 1337q0 -27 8 -57l23 -68q10 -31 16 -43l289 -888q190 -592 238 -781h161q-274 815 -399 1241q-152 520 -151 600q-6 12 -56 31q-46 18 -86 19q-43 -1 -43 -54z" />
<glyph unicode="]" horiz-adv-x="507" d="M115 -43v-98h338v1624h-338v-99h166v-1427h-166z" />
<glyph unicode="^" horiz-adv-x="1275" d="M145 655l435 795h114l434 -795h-143l-348 629l-348 -629h-144z" />
<glyph unicode="_" horiz-adv-x="919" d="M0 -154h983l-61 -122h-922v122z" />
<glyph unicode="`" horiz-adv-x="690" d="M127 1483l80 -140q106 -186 276 -186q16 0 49 14q27 12 27 19q-47 14 -90 53q-41 37 -61 76l-43 78q-22 37 -50 61q-29 25 -65 25h-123z" />
<glyph unicode="a" horiz-adv-x="1017" d="M76 238q0 98 57 168q59 72 150 104q94 35 206 35q74 0 154 -21q4 111 4 123q0 51 -8 117q-6 47 -25 90q-20 47 -59 68q-41 23 -100 22q-70 0 -113 -43q-45 -45 -45 -102l1 -4q1 -4 1 -7v-10q-27 -20 -70 -20q-41 0 -69.5 24.5t-28.5 67.5q0 59 49 102q51 45 123 66 q70 20 156 20q371 0 370 -293l-1 -16q-1 -16 -1 -31q0 -8 -1 -49t-1 -76v-225q0 -66 9 -123q10 -66 20 -90q37 -74 141 -74v-36q-35 -20 -88 -35q-61 -16 -102 -17q-39 0 -70 19q-29 18 -45 43q-15 25 -24 55q-14 45 -15 51q-2 14 -2 33q-29 -90 -117 -145q-90 -55 -176 -56 q-135 0 -206 78q-74 81 -74 187zM260 272q0 -57 41 -104t119 -47q71 0 135 31q61 29 82 67l6 256q-4 0 -18.5 -1t-24.5 -1q-28 0 -92 -12q-59 -12 -115 -31q-52 -18 -92 -61q-41 -46 -41 -97z" />
<glyph unicode="b" d="M98 1458v37l21 12q33 18 61 27q43 12 86 12q74 0 103 -43q27 -42 27 -127q0 -8 -1 -16q0 -43 -6 -148q-4 -59 -8 -190q-4 -66 -12 -102q135 119 284 118q74 0 142 -30q70 -31 123 -88q51 -53 86 -156q33 -96 32 -225q0 -84 -18.5 -164t-59.5 -156q-35 -63 -98 -127 q-49 -49 -135 -86q-78 -33 -174 -33q-114 0 -209 37q-96 37 -123 99q-23 51 -22 163q0 180 2 316l-4 686q0 86 -25 131q-25 47 -72 53zM379 848q0 -389 8 -543q6 -129 43 -178q39 -51 143 -51q57 0 99 20q51 27 73 56q28 37 50 79q25 49 32 93q12 66 15 94q4 57 4 86 q0 184 -84 293q-82 106 -217 106q-94 0 -166 -51v-4z" />
<glyph unicode="c" horiz-adv-x="964" d="M96 461q0 254 133 415.5t349 161.5q82 0 149 -18q74 -20 119 -59q49 -43 49 -107q0 -35 -28.5 -63.5t-75.5 -28.5q-39 0 -68 29q-16 133 -186 133q-78 0 -138 -58q-59 -55 -90 -147q-31 -89 -30 -191q0 -106 32 -192q34 -89 105 -148q72 -59 172 -59q89 0 178 49 q86 47 141 131l4 -16q4 -20 4 -33q0 -74 -59 -143q-61 -70 -151 -107q-92 -37 -189 -37q-82 0 -158 29q-74 29 -133 84q-59 57 -94 154q-35 98 -35 221z" />
<glyph unicode="d" horiz-adv-x="1136" d="M96 461q0 83 19 166q18 82 59 157q39 72 98 131q53 53 135 88t175 35q84 0 180 -28l-2 264q0 86 -25 131q-25 47 -71 53v37l20 12q33 18 61 27q43 12 86 12q74 0 103 -43q27 -41 27 -143q0 -63 -8.5 -204.5t-8.5 -307.5q0 -348 10 -588q2 -59 17 -102q12 -40 37 -62 q23 -20 49 -26q33 -8 63 -9v-36l-31.5 -14.5l-21.5 -10.5q-20 -8 -55 -16q-45 -10 -74 -11q-25 0 -45 7q-27 8 -47 20q-23 14 -41 45q-16 27 -23 70q-152 -141 -303 -142q-76 0 -141 27q-61 25 -123 86q-51 51 -86 152q-33 96 -33 223zM287 496q0 -182 84 -284.5t217 -102.5 q86 0 174 65v31v29.5t1 68.5t1 92v193v309q-104 29 -205 29q-70 0 -115 -29q-55 -35 -79 -76q-31 -51 -48 -106q-18 -61 -24 -113q-6 -53 -6 -106z" />
<glyph unicode="e" horiz-adv-x="1005" d="M96 461q0 160 54 295q51 131 149 207q96 76 227 75q72 0 131 -18q61 -18 99 -47q39 -29 65 -68q25 -35 41 -76q10 -25 23 -81q10 -47 10 -70q0 -8 1 -26.5t1 -28.5v-48q-43 -25 -119 -24l-493 6q2 -20 2 -82q0 -160 84 -254q84 -92 217 -92q89 0 178 49q86 47 141 131 l4 -16q4 -20 4 -33q0 -74 -59 -143q-61 -70 -151 -107q-92 -37 -189 -37q-72 0 -127 17q-59 18 -113 55q-49 35 -92 94q-37 51 -63 140q-21 71 -25 182zM279 639l438 8q0 111 -58 193q-59 84 -161 84q-51 0 -86 -21q-37 -23 -62 -63q-29 -49 -41 -88q-16 -50 -30 -113z" />
<glyph unicode="f" horiz-adv-x="669" d="M92 942l12 -4q8 -2 33 -23q18 -16 43 -47q27 -35 27 -309q0 -119 -2 -205q0 -39 -1 -114.5t-3 -110.5q-2 -66 -2 -100v-29h209q-33 145 -33 754v133h65q23 0 47.5 -1t26.5 -1q156 0 156 108l-4 39l-4 -6q-6 -6 -23 -12q-18 -6 -45 -6h-225q4 12 4 47v20l-4 142q0 8 -1 15 q0 187 146 187q40 0 68 -24q27 -23 32 -60q27 -10 54 -10q41 0 65 27q25 29 25 63q0 65 -62 98q-59 33 -139 33q-41 0 -84 -12q-47 -14 -86 -41q-51 -37 -80 -76q-33 -45 -61 -121q-25 -66 -35 -170q-6 -63 -37 -90q-33 -31 -72 -32z" />
<glyph unicode="g" horiz-adv-x="1071" d="M82 -287q0 35 29 74q29 37 82 37q20 0 44.5 -14.5t38.5 -34.5q-10 -37 -10 -58q0 -74 72 -110q74 -37 180 -37q125 0 213 57q90 59 90 148q0 49 -37 78q-37 27 -96 36q-41 6 -129 11q-98 4 -143 8q-71 6 -129 24q-61 18 -97 64q-37 46 -36 117q0 119 143 182 q-74 43 -125 131q-47 80 -47 203q0 176 119 293q121 117 309 116q55 0 110.5 -14t84.5 -43l36 27h183q27 0 45 6q20 6 22 12l4 6q12 -29 13 -55q0 -51 -39 -72q-41 -23 -94 -22q-34 0 -62 12q-23 10 -31 10l-8 -2q49 -39 76 -104.5t27 -141.5q0 -104 -33 -182 q-35 -84 -92 -131q-61 -51 -131 -76q-76 -27 -152 -26q-90 0 -174 30q-47 -35 -47 -92q0 -12 6 -35q10 -29 43 -43q43 -18 86 -20q41 -2 113 -6l125 -6q63 -2 124 -19q63 -16 107 -39q47 -25 74 -71q29 -51 28 -119q0 -104 -73.5 -184t-184.5 -117q-117 -39 -231 -39 q-104 0 -207 26q-92 25 -158 80q-61 51 -61 125zM319 684q0 -162 57.5 -262t166.5 -100q88 0 137 73.5t49 202.5q0 160 -63 256q-65 98 -172 98q-51 0 -91 -28q-41 -31 -55 -74q-18 -53 -22 -84q-7 -41 -7 -82z" />
<glyph unicode="h" horiz-adv-x="1193" d="M104 1458v37l21 12q31 18 61 27q43 12 86 12q68 0 97 -37q29 -39 28 -110q0 -111 -6 -185q-11 -167 -11 -335q0 -37 1 -74q23 41 59 80q34 37 80 73q43 35 110.5 57.5t135.5 22.5q102 0 174 -73q68 -72 72 -170q0 -78 -2 -195q-1 -48 -1 -102q0 -81 3 -246 q2 -164 20 -252h-201q-5 39 -4 72v26l4 492q0 11 1 21q0 134 -35 198q-35 63 -131 68q-170 0 -285 -134q2 -391 16 -657q2 -57 11 -86h-203v31q1 222 1 424q0 421 -5 819q0 86 -25 131q-25 47 -72 53z" />
<glyph unicode="i" horiz-adv-x="571" d="M111 946v37q78 51 182 51q66 0 88 -45q16 -32 16 -89q0 -18 -2 -38l-6 -209q-6 -209 -6 -499q0 -95 12 -154h-202v8l16 690q1 17 1 33q0 47 -7 84q-9 49 -25 74q-14 23 -31 39q-14 14 -24 16zM172 1313q0 43 33 73q37 33 78 33q39 0 75 -33q33 -31 33 -73 q0 -45 -32.5 -78t-75.5 -33q-45 0 -78 33t-33 78z" />
<glyph unicode="j" horiz-adv-x="563" d="M-23 -453q45 -57 103 -57q45 0 96 39q55 43 100 102q51 68 80 152q33 94 33 182v737q0 33 1 70t2 57.5t1 30.5q0 94 -24 133q-25 41 -95 41q-43 0 -86 -12q-29 -8 -61 -27l-21 -12v-37q45 -6 74 -53q27 -45 27 -131l2 -350v-441q0 -98 -29 -190q-31 -98 -86.5 -166 t-116.5 -68zM172 1313q0 43 33 73q37 33 78 33q39 0 75 -33q33 -31 33 -73q0 -45 -32.5 -78t-75.5 -33q-45 0 -78 33t-33 78z" />
<glyph unicode="k" horiz-adv-x="1099" d="M109 1458v37l20 12q31 18 61 27q43 12 86 12q70 0 101 -37q29 -35 29 -120q0 -70 -9 -334q-10 -332 -10 -496l322 266q58 49 61 86q0 18 -25 35v37q20 14 76 32.5t103 18.5q88 0 88 -53q0 -31 -37 -72q-37 -40 -86 -73t-98 -70l-236 -166l104 -145l46 -64l49 -67 q33 -45 49 -64q41 -49 51 -59l14.5 -14.5l19.5 -19.5l17 -17q29 -27 58 -46q28 -18 61.5 -30.5t67.5 -18.5v-35q-23 -16 -76 -32q-49 -14 -90 -15q-74 0 -121 21q-53 23 -88 61q-35 37 -99 133l-83 127l-70 109l-45 65q-23 31 -33 35q0 -399 23 -524h-205v31q0 14 1 89 t1 136v236l-2 782q0 86 -25 131q-24 47 -71 53z" />
<glyph unicode="l" horiz-adv-x="571" d="M109 1458v37l20 12q31 18 61 27q43 12 86 12q66 0 97 -37q29 -35 33 -110q1 -18 0 -39q0 -62 -7 -146q-12 -249 -12 -589q0 -319 10 -539q0 -18 13 -86h-205v31q3 359 3 565q0 129 -1 248l-2 430q0 86 -25 131q-24 47 -71 53z" />
<glyph unicode="m" horiz-adv-x="1820" d="M102 946v37q82 51 183 51q33 0 57 -14q27 -14 35 -37q9 -25 12 -55q2 -15 2 -32t-2 -34l-10 -57q23 41 59 80q31 35 84 73q47 35 113 58q68 23 137 22q92 0 162 -63q66 -59 82 -152q23 37 59 74q41 41 80 70q45 33 107 51q68 20 131 20q106 0 174 -73q70 -76 71 -170 q0 -76 -2 -193q-1 -48 0 -102q0 -83 2 -248q2 -164 21 -252h-201q-5 39 -5 72q0 13 1 26l4 492v21q0 134 -35 198q-35 63 -131 68q-164 0 -274 -117q-2 -154 -2 -276q0 -381 22 -484h-200q-5 32 -6 65q0 16 2 33l4 492v24q0 134 -33 195q-35 63 -133 68q-174 0 -289 -140 q0 -293 4 -583q0 -72 16 -154h-204v8l8 690q0 61 -10 117q-9 49 -25 74q-10 16 -33 39q-12 12 -26 16z" />
<glyph unicode="n" horiz-adv-x="1200" d="M102 983q82 51 183 51q33 0 57 -14q27 -14 35 -37q9 -25 12 -55q2 -15 2 -32t-2 -34l-10 -57q23 41 59 80q31 35 84 73q47 35 113 58q68 23 137 22q104 0 174 -73q68 -72 72 -170q0 -78 -2 -195q-1 -48 -1 -102q0 -81 3 -246q2 -164 20 -252h-200q-5 32 -6 65q0 16 2 33 l4 492v24q0 134 -33 195q-35 63 -133 68q-174 0 -289 -140q0 -293 4 -583q0 -72 16 -154h-204v8l8 690q0 74 -8 117q-8 45 -27 74q-14 23 -31 39q-12 12 -26 16l-11 2z" />
<glyph unicode="o" d="M96 487q0 -4 1 -17t1 -21q0 -20 11 -78q8 -49 24 -101q15 -49 49 -104q37 -59 76 -96q45 -41 117 -70q68 -27 157 -27q111 0 203 45q102 49 162 121q68 80 102 176q37 102 37 211q0 129 -35 226q-37 100 -98 161.5t-137 92.5q-82 33 -164 32q-141 0 -260 -71 q-115 -70 -180.5 -197t-65.5 -283zM297 573q0 53 8 97q10 55 27 96q18 45 45 86q25 37 65.5 59.5t85.5 22.5q127 0 217 -135q88 -133 89 -338q0 -170 -72 -278.5t-174 -108.5q-123 0 -207 145t-84 354z" />
<glyph unicode="p" horiz-adv-x="1153" d="M109 946v37l20 12q31 18 61 27q43 12 86 12q72 0 94.5 -28.5t22.5 -94.5q141 123 283 123q72 0 141 -28q61 -25 121 -88q55 -59 88 -154q33 -96 33 -225q0 -84 -18.5 -164t-59.5 -156q-35 -63 -98 -127q-49 -49 -135 -86q-78 -33 -175 -33q-80 0 -184 29q6 -389 8 -416 q6 -57 11 -78h-203v36t1 83.5t1 112.5v225l-2 797q0 86 -25 131q-24 47 -71 53zM389 115h2q86 -29 205 -29q66 0 117 29q49 29 78 71q29 45 47 103t24 110.5t6 104.5q0 184 -84 291q-84 104 -217 104q-102 0 -161 -45v-6q0 -70 -8.5 -260.5t-8.5 -362.5v-110z" />
<glyph unicode="q" horiz-adv-x="1126" d="M96 461q0 83 19 166q18 82 59 157q39 72 98 131q53 53 135 88t175 35q43 0 200 -16q176 -18 193 -18q-16 -574 -16 -959q0 -299 10 -481q0 -10 4 -56h-197v226q0 59 1 111.5t1 82v33.5v150q-143 -137 -299 -138q-76 0 -141 27q-61 25 -123 86q-51 51 -86 152 q-33 96 -33 223zM287 496q0 -182 84 -284.5t217 -102.5q109 0 190 65l-4 588q0 77 -12 135q-92 29 -203 29q-70 0 -115 -29q-55 -35 -79 -76q-31 -51 -48 -106q-18 -61 -24 -113q-6 -53 -6 -106z" />
<glyph unicode="r" horiz-adv-x="827" d="M106 946v37q82 51 183 51q55 0 78 -30q20 -29 20 -86q0 -25 -6 -56l-10 -90q2 4 18 33q14 27 43 65q31 43 66 78q39 39 86 64q51 27 104 26q66 0 105 -34q37 -33 36 -89q0 -41 -28 -73q-27 -31 -76 -31q-18 0 -39 4q-27 70 -94 70q-49 0 -84 -33q-37 -33 -59 -86 q-27 -61 -39 -113q-14 -57 -21 -118q-6 -55 -6 -101q0 -367 20 -434h-204q0 10 1 46t2 104.5t1 138.5q4 332 4 409q0 61 -4 88q-6 43 -13 66q-4 16 -18 45q-6 12 -20 27q-2 2 -21 14q-8 6 -14 6q-2 0 -5.5 1t-5.5 1z" />
<glyph unicode="s" horiz-adv-x="849" d="M92 737q0 123 98 213q96 88 244 88q61 0 133 -14q61 -12 86 -25q37 -18 62 -32q10 -27 10 -64q0 -31 -10 -78q-8 -41 -33 -65l-37 8q-23 70 -63 106q-47 43 -80 54q-39 12 -84 12q-78 0 -125 -37t-47 -92q0 -37 22 -72q20 -31 62 -55l84 -47q20 -12 98 -45q66 -29 96 -49 q53 -37 84 -64q41 -37 62 -84q23 -51 22 -110q0 -139 -102 -226q-101 -86 -264 -86q-121 0 -215 64q-96 66 -97 147q0 39 21 72q12 -57 108.5 -110.5t184.5 -53.5q51 0 94 12q39 10 72 48q31 34 30 86q0 35 -28 67q-28 31 -74 55l-100 52q-55 25 -111 55q-59 33 -100 65 q-47 37 -74 89q-29 53 -29 116z" />
<glyph unicode="t" horiz-adv-x="770" d="M92 946l10 62q6 0 23 4q10 2 41 16t65 51q29 31 68 99h100l-24 -170h250q27 0 45 6q20 6 22 12l4 6q4 0 4 -39q0 -49 -45 -79.5t-112 -30.5q-35 0 -68 2t-69 2q-25 0 -29 -2l-2 -520q0 -55 6 -93q6 -39 20 -69q15 -34 50 -49q31 -14 86 -15q61 0 120 21q61 23 70 37 q12 -18 12 -43q0 -66 -82 -123.5t-188 -57.5q-86 0 -139 21q-57 23 -84 67q-33 55 -41 103q-10 61 -10 141q0 55 6 202.5t6 211.5q0 131 -21 158q-2 2 -10 13t-12 15q-10 10 -23 19q-2 2 -10 6t-10 6q-4 2 -9.5 4t-7.5 2q-8 4 -10 4h-2z" />
<glyph unicode="u" horiz-adv-x="1202" d="M90 948v35q25 18 80 35q53 16 90 16q68 0 94.5 -32.5t26.5 -100.5v-168l-2 -319v-25q0 -134 31 -190q35 -63 129 -64q170 0 282 135q6 252 6 410q0 74 -8 125q-8 55 -18 78q-16 35 -33 47q-20 16 -43 22v35l23 10q18 10 63 25q41 12 72 12q84 0 106 -37q23 -39 23 -172 v-516q0 -29 4 -69q2 -12 5 -32t3 -22q4 -27 12 -43q4 -6 9.5 -16t7.5 -14q4 -8 20 -21q18 -14 21 -14l8 -3q8 -3 14 -5q20 -4 22.5 -4t9.5 -1.5t13 -1.5t11.5 -1t7.5 -1v-36q-20 -14 -78 -33t-105 -19q-41 0 -69 15q-31 14 -47 35q-14 16 -29 53q-14 35 -16 61q-4 41 -7 66 q-20 -35 -61 -80q-39 -43 -84 -74q-51 -35 -111 -55q-61 -20 -137 -21q-104 0 -172 74q-70 76 -71 170l4 277q1 67 1 114q0 75 -3 119q-6 86 -29 147q-10 27 -29 48q-20 20 -33 22z" />
<glyph unicode="v" horiz-adv-x="1026" d="M20 983q27 20 78 35q55 16 92 16q68 0 97 -30q28 -31 49 -105q18 -94 194 -590q27 -74 56 -133l14 51q20 68 27 86l161 426q29 70 29 129q0 55 -35 78v37q18 18 63.5 34.5t84.5 16.5q70 0 69 -69q0 -57 -51 -174l-289 -680l-47 -166l-73 18q-66 12 -97 55q-33 43 -45 93 l-184 577q-25 72 -47 113q-35 61 -47 76q-16 18 -45 43q-18 16 -33 20l-18 6z" />
<glyph unicode="w" horiz-adv-x="1701" d="M20 983q27 20 78 35q55 16 92 16q68 0 97 -30q28 -31 49 -105q18 -94 194 -590q27 -74 56 -133l47 137l155 426q25 70 33 101q-59 88 -123 106l-2 37q27 20 78 35q55 16 92 16q68 0 97 -30q28 -31 49 -105q18 -94 194 -590q27 -74 56 -133l14 51q20 68 27 86l161 426 q27 66 27 138q0 51 -33 69v37q27 23 66 37q41 14 82 14q68 0 68 -71q0 -61 -50 -172l-289 -680l-47 -166l-74 18q-41 8 -75.5 37t-47 57.5t-18.5 53.5l-180 563l-234 -563l-47 -166l-73 18q-66 12 -97 55q-33 43 -45 93l-184 577q-25 72 -47 113q-35 61 -47 76 q-16 18 -45 43q-18 16 -33 20l-18 6z" />
<glyph unicode="x" horiz-adv-x="968" d="M20 0l390 481l-131 207q-25 35 -64 100l-43 70q-12 22 -31 43q-14 16 -43 29q-25 10 -59 16l-2 37q66 51 141 51q35 0 62 -6q31 -6 43 -14q18 -10 32 -29q20 -25 27 -35q18 -37 25 -47q27 -47 32 -53l123 -197l19 -41l24 41l125 158q43 53 43 96q0 27 -18 41v35 q57 51 141 51q31 0 51 -16q18 -14 19 -43q0 -63 -47 -125q-43 -57 -277 -322l268 -413l91 -115h-252l-39 76l-174 270l-23 41l-8 -14q-8 -12 -21 -29l-202 -262l-47 -82h-175z" />
<glyph unicode="y" horiz-adv-x="1017" d="M10 983q27 20 78 35q55 16 92 16q68 0 99 -30q27 -27 47 -105q18 -90 194 -590q29 -80 55 -133q8 43 43 137l162 426q29 70 29 129q0 55 -35 78v37q18 18 63.5 34.5t84.5 16.5q70 0 69 -69q0 -23 -10 -60q-10 -39 -20 -61q-4 -8 -21 -53l-418 -1004q-10 -29 -22 -55 q-4 -8 -23 -54l-22 -47q-8 -16 -25 -45q-12 -23 -27 -39q-10 -12 -30 -32q-10 -10 -35 -27q-16 -10 -39 -20q-20 -8 -47 -13q-33 -4 -55 -4q-86 0 -129 49t-43 127q0 33 2 43q8 -25 55 -41q41 -14 90 -14q164 0 211 115l94 225q4 12 17 33l10 14q-43 14 -74 41 q-34 31 -43 68l-184 577q-25 72 -47 113q-35 61 -47 76q-14 18 -46 43q-16 14 -34 20q-2 0 -8.5 3t-8.5 3z" />
<glyph unicode="z" horiz-adv-x="952" d="M51 39l21 20q18 18 34 41l457 723q25 33 37 45l21 21h-287q-92 0 -150 -31q-59 -31 -65 -78h-39q-12 16 -14 54q-1 11 -1 22q0 35 7 76q8 53 41 88l282 -12h475l7 -39l-21 -21q-27 -27 -35 -41l-456 -731q-25 -37 -31 -41l-19 -16h322q88 0 149 31q59 29 66 77h39 q12 -16 14 -51q1 -10 1 -20q0 -31 -7 -70q-8 -51 -41 -86h-283h-518z" />
<glyph unicode="{" horiz-adv-x="679" d="M37 578v45q154 0 153 579q0 88 31 155.5t78 108.5t100 62q57 23 107 22q72 0 125 -47q-117 -2 -188.5 -86t-71.5 -233q0 -270 -58 -430q-59 -164 -118 -170l14 -9q16 -12 31 -28q25 -29 43 -72q27 -61 43 -123q23 -82 32 -194q12 -123 13 -275q0 -14 1 -36.5t1 -30.5 q0 -12 4 -62q2 -33 14 -59q14 -35 23 -47q16 -27 37 -41q16 -12 55 -23q37 -10 74 -10q2 0 51 4q-68 -80 -174 -80q-109 0 -187 78q-80 80 -80 213q0 231 -12 391q-12 147 -37 242q-20 80 -47 115q-24 35 -57 41z" />
<glyph unicode="|" horiz-adv-x="161" d="M0 -520v2068h164v-2068h-164z" />
<glyph unicode="}" horiz-adv-x="679" d="M51 -422q68 -80 174 -80q109 0 187 78q80 80 80 213q0 231 12 391q12 147 37 242q20 80 47 115q25 35 57 41v45q-154 0 -153 579q0 88 -31 155.5t-78 108.5t-100 62q-57 23 -107 22q-72 0 -125 -47q117 -2 188.5 -86t71.5 -233q0 -270 58 -430q59 -164 118 -170l-14 -9 q-16 -12 -31 -28q-25 -29 -43 -72q-27 -61 -43 -123q-23 -82 -32 -194q-12 -123 -13 -275q0 -14 -1 -36.5t-1 -30.5q0 -12 -4 -62q-2 -33 -14 -59q-14 -35 -23 -47q-16 -27 -37 -41q-16 -12 -55 -23q-37 -10 -74 -10q-2 0 -51 4z" />
<glyph unicode="~" horiz-adv-x="1077" d="M184 535q33 25 37 26q20 10 39 17q33 10 53 8q37 -4 125 -33q102 -35 160 -37q102 -6 176 35q78 43 96 129q-80 -59 -151 -55q-31 2 -131 34q-92 29 -146 33q-96 6 -168 -33q-76 -40 -90 -124z" />
<glyph unicode="&#xa1;" horiz-adv-x="538" d="M127 -102q-4 45 0 79q8 61 14 93q8 39 19 112q12 92 14 123l57 723h60l74 -999q2 -43 16 -84q12 -39 22 -49l11 -11v-47l-19 -10q-12 -8 -51 -23q-34 -12 -61 -12q-52 0 -86 12.5t-50 36.5q-18 29 -20 56zM154 1255q0 41 32 78q31 33 76 33q41 0 78 -33q33 -31 33 -78 q0 -45 -33 -75q-37 -33 -78 -33q-43 0 -75.5 32.5t-32.5 75.5z" />
<glyph unicode="&#xa2;" horiz-adv-x="1001" d="M113 461q0 158 51 280q51 125 149 205q96 78 224 90q0 14 -5 105q-2 23 -3 39t-2 22t-1 11.5v9.5q55 10 58 10q14 0 30 -8q12 -6 17 -27q4 -25 4 -33v-47q0 -12 -1 -28.5t-1 -20.5v-33q133 -12 207 -75q72 -61 53 -158q-35 41 -107 67q-74 27 -155 31q-6 -479 -6 -637 v-135q86 6 166 53q78 47 133 127l4 -16q4 -20 4 -33q0 -96 -90 -174t-215 -102l8 -207h-100q0 156 2 196h-5q-82 0 -157 29q-78 29 -133 84q-61 61 -95 154q-34 98 -34 221zM295 528q0 -92 24 -172q23 -76 82 -141q55 -61 136 -80q6 645 4 762q-94 -12 -148 -72 q-51 -57 -74 -129q-24 -78 -24 -168z" />
<glyph unicode="&#xa3;" horiz-adv-x="1122" d="M74 551l12 133q0 4 137 4q0 35 1 89t1 75q0 66 6 127q6 66 21 121q16 61 29 92q23 57 47 98q33 55 73 96q43 43 99 80q51 33 135 58q74 20 168 20q63 0 125 -20q66 -23 110 -64q47 -43 47 -100q0 -68 -38.5 -102.5t-81.5 -34.5q-46 0 -80 30q3 0 6 13q2 8 2 30 q0 47 -51 90q-49 41 -135 41q-113 0 -193 -98t-92 -229q-4 -35 -8 -100.5t-4 -86.5q0 -35 -2 -104q0 -23 -1 -63.5t-4 -61.5q37 0 74 -1t55.5 -2t24.5 -1h102q16 0 45 1t41 1q29 0 62 4q25 2 35 10q-8 -41 -17 -55q-12 -22 -30 -37q-16 -14 -41 -24q-29 -12 -47 -15 q-16 -2 -54 -6q-18 -2 -57 -2h-57h-142q-6 -176 -47 -381q-45 -223 -84 -280q231 -45 403.5 -45.5t313.5 30.5t197 92q6 -27 6 -53q0 -219 -410 -219q-115 0 -299 27q-68 10 -399 63q59 133 96 344q39 223 47 424h-90q-30 0 -57 -8z" />
<glyph unicode="&#xa4;" horiz-adv-x="1181" d="M25 731l24 131q0 -6 127 -6q55 236 227 377q170 139 414 139q190 0 272 -67.5t9 -174.5q-2 25 -39 52q-31 25 -109 47q-68 20 -157 20q-176 0 -297 -112q-123 -114 -160 -283h385h102h86q12 0 62 6q25 2 35 10q-8 -41 -17 -55q-12 -22 -31 -37q-16 -14 -40 -24 q-29 -12 -48 -15q-16 -2 -53 -6q-18 -2 -57 -2h-58h-378q0 -61 10 -164h264h102h86q12 0 62 6q25 2 35 11q-6 -35 -17 -54q-12 -23 -30 -38q-16 -14 -41 -25q-29 -12 -47 -14l-54 -7q-18 -2 -57 -2h-57h-222q104 -354 461 -354q35 0 74 8q45 10 108 37q57 25 107 74 q3 -117 -92 -178q-92 -59 -260 -60q-240 0 -387 127q-152 129 -197 348h-106q-31 0 -37 -2l20 131q37 -4 105 -4q-2 16 -2 74q0 51 4 88h-95q-30 0 -36 -2z" />
<glyph unicode="&#xa5;" horiz-adv-x="1062" d="M10 1313l15 35q61 29 143 28q86 0 121 -37q47 -119 143 -303q94 -184 154 -278l10 26l25 50l170 301q27 47 26 94q0 45 -24 84l14 35q63 29 115 28q47 0 108 -28q0 -37 -39 -123q-41 -94 -80 -158l-225 -360h94q16 0 42 1t38 1q29 0 62 4q25 2 34 10q-2 -18 -14 -43 q-10 -18 -20 -33q-12 -14 -29 -24q-18 -10 -35 -17q-35 -12 -39 -12l-43 -6q-14 -2 -43 -2q-8 0 -22.5 -1t-22.5 -1h-45q-12 -170 -12 -185h114h99q12 0 74 7q29 2 38 10q-6 -27 -18 -54q-10 -23 -35 -38q-23 -16 -45 -25q-33 -12 -51 -14q-8 0 -28.5 -3t-30.5 -6h-60h-57 q0 -162 16 -276h-198v33q0 16 1 60t1 73v110q-66 2 -209 3q-31 0 -37 -3v132q0 -8 246 -9v185q-66 2 -209 2q-31 0 -37 -2v131q0 -6 186 -8l-180 317l-57 104l-43 80q-20 35 -31 49q-16 20 -33 35q-12 11 -37 21z" />
<glyph unicode="&#xa7;" horiz-adv-x="858" d="M102 -311l4 37q55 -51 136 -82q78 -31 145 -31h19q18 156 -11 360q-29 203 -131 570q-102 373 -102 571q0 172 100 295q98 119 250 119q78 0 143 -19q63 -18 101 -49q33 -27 53 -61q18 -31 18 -56l-4 -36q-55 51 -135 82q-78 31 -145 30h-21q-15 -163 13 -362 q29 -205 131 -568q102 -373 102 -571q0 -172 -100 -295q-98 -119 -250 -119q-78 0 -141.5 18.5t-100.5 49.5t-55.5 61.5t-18.5 55.5zM281 1081q0 -77 24 -184l94 -387l26.5 -107.5l14.5 -62.5q4 -16 9.5 -41l12.5 -58.5t13 -56.5q20 -88 27 -155q12 -113 12 -138 q4 -86 -4 -139q-10 -68 -27 -121q169 61 166 320q0 61 -14 135q-12 63 -35 158q-18 78 -70 278l-61 254q-14 61 -41 217q-18 106 -14 226q2 84 30 182q-165 -66 -163 -320z" />
<glyph unicode="&#xa8;" horiz-adv-x="784" d="M106 1313q0 46 31 80q31 33 72 32.5t72 -32.5q31 -34 30.5 -80t-30.5 -80q-31 -33 -72 -33t-72 33q-31 34 -31 80zM483 1313q0 46 31 80q31 33 72 32.5t71 -32.5q31 -34 31 -80t-31 -80q-31 -33 -71.5 -33t-71.5 33t-31 80z" />
<glyph unicode="&#xa9;" horiz-adv-x="1615" d="M113 618q0 212 92 381t264 265q174 96 391 96q188 0 334 -82q150 -84 229 -227q82 -145 82 -332q0 -213 -90 -383q-88 -166 -256 -266q-162 -96 -383 -97q-291 0 -477 180t-186 465zM244 664q0 -119 45 -232q43 -109 119 -184q78 -78 184 -121q113 -45 229 -45 q106 0 213 45q100 43 178 121q72 72 121 188q45 109 45 236q0 256 -157.5 419.5t-403.5 163.5q-113 0 -221.5 -45t-184 -120.5t-122.5 -188.5q-45 -108 -45 -237zM473 643q0 174 100 295q101 123 258 123q123 0 193 -55q74 -57 55 -136l-14 13q-2 2 -39 24q-14 10 -72 25 q-45 12 -102 12q-41 0 -82 -18.5t-68 -44.5q-72 -72 -71 -197q0 -106 57 -178q59 -76 164 -76q63 0 133 35q63 31 111 98l6 -22q6 -20 6 -35q0 -82 -96 -144q-92 -59 -211 -59q-138 0 -234 86q-94 86 -94 254z" />
<glyph unicode="&#xaa;" horiz-adv-x="856" />
<glyph unicode="&#xab;" horiz-adv-x="1300" d="M127 506l41 41l268 319q45 53 90 86q41 29 78 33q25 2 60 -6q18 -4 43 -23q-20 -6 -43 -26q-25 -20 -39 -39l-15 -19l-227 -303q-14 -18 -41 -43l-27 -20l27 -21q27 -25 41 -43l227 -303l15 -16q14 -18 39 -39q27 -23 43 -29q-31 -20 -43 -24q-29 -6 -60 -4q-37 4 -78 32 q-45 33 -90 86l-268 320zM582 506l41 41l268 319q45 53 90 86q41 29 78 33q25 2 57 -6q20 -6 45 -23q-20 -6 -43 -26q-25 -20 -39 -39l-14 -19l-227 -303q-14 -18 -41 -43l-27 -20l27 -21q27 -25 41 -43l227 -303l14 -16q14 -18 39 -39q27 -23 43 -29q-29 -20 -45 -24 q-27 -6 -57 -4q-37 4 -78 32q-45 33 -90 86l-268 320z" />
<glyph unicode="&#xac;" horiz-adv-x="1093" />
<glyph unicode="&#xad;" horiz-adv-x="616" d="M59 436v131q0 -8 222 -8h102h86q12 0 61 6q25 2 35 10q-6 -35 -18 -55q-14 -25 -29 -37q-16 -14 -41 -24q-29 -12 -47 -15q-16 -2 -53 -6q-18 -2 -58 -2h-57h-90q-18 0 -35.5 1t-28 1h-12.5q-31 0 -37 -2z" />
<glyph unicode="&#xae;" horiz-adv-x="1615" d="M113 627q0 157 55 295q57 143 149 235q102 102 238 156q141 55 305 55q188 0 334 -82q150 -84 229 -227q82 -145 82 -332q0 -213 -90 -383q-86 -164 -256 -264q-166 -98 -383 -98q-289 0 -477 182q-186 180 -186 463zM244 672q0 -119 45 -232q43 -109 119 -184 q78 -78 184 -121q113 -45 229 -45q106 0 213 45q100 43 178 121q72 72 121 188q45 109 45 236q0 252 -157 420q-156 164 -404 164q-160 0 -287 -76q-135 -80 -208 -211q-78 -137 -78 -305zM565 965v43q82 41 142 41q78 0 77 -78q2 -8 -2 -53l-2 -11v-8q33 59 88.5 108.5 t120.5 49.5q53 0 82 -29q27 -27 27 -63q0 -72 -94 -99q-8 23 -29 39q-16 14 -39 15q-61 0 -100 -52q-40 -52 -50 -129q-8 -76 -6 -161q2 -82 23 -158q20 -78 39 -107h-219q14 141 14 486q0 46 -6 80q-6 31 -17 49q-10 16 -20 24q-14 10 -19 11q-2 0 -5 1t-5 1z" />
<glyph unicode="&#xaf;" horiz-adv-x="684" d="M100 1225v131q0 -8 222 -8h102q18 0 47 1t39 1q29 0 61 4q25 2 35 10q-6 -33 -18 -53q-16 -29 -29 -39q-16 -14 -41 -25q-29 -12 -47 -14q-16 -2 -53 -6q-18 -2 -58 -2h-57q-6 0 -35.5 1t-54.5 1h-76q-31 0 -37 -2z" />
<glyph unicode="&#xb0;" horiz-adv-x="815" d="M55 1175.5q0 143.5 101 241.5q102 98 243.5 98.5t239.5 -98.5q100 -100 100 -241q0 -139 -100 -244q-98 -100 -240 -101q-143 0 -243.5 100.5t-100.5 244zM172 1176q0 -92 66 -158q68 -68 159 -68q96 0 160 66q66 70 66 160q0 98 -63.5 161.5t-162.5 63.5q-96 0 -159 -64 q-66 -65 -66 -161z" />
<glyph unicode="&#xb1;" horiz-adv-x="913" />
<glyph unicode="&#xb2;" horiz-adv-x="915" d="M82 0h596q92 0 131 35q37 35 37 82q0 27 -6 47q-20 -20 -54 -23q-25 -2 -190 -2h-350l41 33q18 14 98 86q66 59 129 131q68 77 129 160q59 82 100 180q39 96 39 184q0 59 -20 107q-25 55 -62 92q-45 43 -114 68q-74 25 -170 24q-82 0 -160 -22q-72 -20 -121 -63.5 t-49 -100.5q0 -63 55 -84q53 -20 101 24v15q0 51 45 90t108 39q89 0 135 -74q45 -72 45 -178q0 -88 -51 -203q-51 -113 -123 -207q-47 -61 -145 -172q-71 -80 -123 -129l-51 -49v-90z" />
<glyph unicode="&#xb3;" horiz-adv-x="899" d="M41 -80q41 -4 53 -4q82 0 162 18.5t155.5 59.5t120.5 112q49 78 52 170q0 55 -9 95q-10 45 -24 71q-18 33 -39 54q-29 29 -43 36q-27 14 -51 23l-24.5 8t-26.5 8l-52 9l23 55l4 2q90 43 152 119q59 74 59 159q0 49 -14 86q-14 39 -56 70q-40 31 -98 31q-68 0 -113 -39 q-47 -41 -41 -105q-37 -29 -75 -28q-31 0 -58 26q-25 25 -24 62q0 82 94 133q96 53 221 53q88 0 166 -22q72 -20 115 -62q41 -37 63 -84q20 -41 21 -90q0 -89 -68 -166q-70 -78 -184 -139q23 -2 84 -18q25 -6 78 -33q39 -18 69 -58q31 -37 47 -88q18 -55 19 -129 q0 -98 -41 -184q-37 -78 -107 -137q-53 -45 -153 -92q-84 -39 -174 -56q-92 -16 -174 -16q-35 0 -58 14q-25 16 -33 31q-14 27 -14 31z" />
<glyph unicode="&#xb4;" horiz-adv-x="690" d="M139 1190q51 14 92 53q41 37 62 76l20.5 39.5l20.5 38.5q22 37 49 61q27 25 66 25h122l-79 -140q-106 -186 -277 -186q-16 0 -49 14q-27 13 -27 19z" />
<glyph unicode="&#xb6;" horiz-adv-x="1271" d="M117 762q0 160 71 297q70 135 195 215q119 78 266 78h2h221h103q16 0 45 1t41 1q29 0 61 4q25 2 35 10q-18 -115 -147 -133q-2 -14 -2 -66q0 -47 -2 -127q-2 -43 -3.5 -148.5t-1.5 -158.5q-2 -125 -2 -350q0 -270 5 -514l6 -367h-101q4 584 6 852q2 254 0 496 q-4 272 -8 377h-90q-2 -12 -2 -60v-16q0 -16 -1 -46t-1 -65q0 -180 -2 -307q-4 -254 -4 -350q0 -270 4 -514l6 -367h-100q0 115 1 257.5t2 219t1 117.5q0 53 4 86q-55 -20 -102 -22q-100 -8 -197 41q-100 51 -164 133q-68 86 -106.5 196.5t-38.5 229.5z" />
<glyph unicode="&#xb7;" horiz-adv-x="526" d="M145 502q0 45 33 76q37 33 78 32q39 0 76 -32q33 -31 33 -76q0 -43 -31 -78q-31 -33 -78 -33q-45 0 -78 33t-33 78z" />
<glyph unicode="&#xb8;" horiz-adv-x="821" d="M205 -377q0 27 8 45q45 -43 145 -43q49 0 82 20.5t33 57.5q0 27 -29 45q-31 20 -61 29q-35 10 -63.5 34.5t-28.5 61.5q0 70 78 113l43 2q-14 -27 -15 -60q0 -18 21 -26q25 -10 51 -19q12 -4 59 -22q25 -10 50 -41q20 -27 20 -72q0 -94 -67.5 -161.5t-165.5 -67.5 q-72 0 -117 28q-43 27 -43 76z" />
<glyph unicode="&#xb9;" horiz-adv-x="520" />
<glyph unicode="&#xba;" horiz-adv-x="841" />
<glyph unicode="&#xbb;" horiz-adv-x="1314" d="M129 55q31 -20 43 -24q29 -6 59 -4q37 4 78 32q45 33 90 86l269 320l41 41l-41 41l-269 319q-45 53 -90 86q-41 29 -78 33q-25 2 -59 -6q-18 -4 -43 -23q16 -6 41 -26q31 -27 41 -39l14 -19l228 -303q14 -18 41 -43l26 -20l-26 -21q-27 -25 -41 -43l-228 -303l-14 -16 q-10 -12 -41 -39q-29 -25 -41 -29zM584 55q29 -20 45 -24q27 -6 57 -4q37 4 78 32q45 33 90 86l268 320l41 41l-41 41l-268 319q-45 53 -90 86q-41 29 -78 33q-25 2 -57 -6q-20 -6 -45 -23q20 -6 43 -26q25 -20 39 -39l14 -19l227 -303q14 -18 41 -43l27 -20l-27 -21 q-27 -25 -41 -43l-227 -303l-14 -16q-14 -18 -39 -39q-27 -23 -43 -29z" />
<glyph unicode="&#xbc;" horiz-adv-x="1265" />
<glyph unicode="&#xbd;" horiz-adv-x="1437" />
<glyph unicode="&#xbe;" horiz-adv-x="2967" d="M2007 233q43 127 160 347q123 229 242 403q129 186 186 225h125l-4 -86l-2 -67q0 -16 -1 -38t-2 -34t-1 -18v-623q96 0 154 4q41 2 59 21q37 -162 -162 -164h-49q0 -172 2 -217q0 -72 16 -154h-202v8l2 363h-496zM2188 342h342l4 506q4 86 14 156q-61 -66 -182 -285 q-117 -211 -178 -377zM1040 0h-145l711 1026q188 283 190 324q39 31 82 30q61 0 61 -41q0 -35 -39 -92q-45 -66 -57 -78l-19 -26l-66.5 -94.5l-100.5 -141.5l-371 -532q-188 -274 -246 -375zM41 -80q41 -4 53 -4q82 0 162 18.5t155.5 59.5t120.5 112q49 78 52 170 q0 55 -9 95q-10 45 -24 71q-18 33 -39 54q-29 29 -43 36q-27 14 -51 23l-24.5 8t-26.5 8l-52 9l23 55l4 2q90 43 152 119q59 74 59 159q0 49 -14 86q-14 39 -56 70q-40 31 -98 31q-68 0 -113 -39q-47 -41 -41 -105q-37 -29 -75 -28q-31 0 -58 26q-25 25 -24 62q0 82 94 133 q96 53 221 53q88 0 166 -22q72 -20 115 -62q41 -37 63 -84q20 -41 21 -90q0 -89 -68 -166q-70 -78 -184 -139q23 -2 84 -18q25 -6 78 -33q39 -18 69 -58q31 -37 47 -88q18 -55 19 -129q0 -98 -41 -184q-37 -78 -107 -137q-53 -45 -153 -92q-84 -39 -174 -56 q-92 -16 -174 -16q-35 0 -58 14q-25 16 -33 31q-14 27 -14 31z" />
<glyph unicode="&#xbf;" horiz-adv-x="847" d="M86 172q0 86 47 176q45 86 115 160l133 137q66 68 113 137q47 72 47 131q0 55 -47 93l41 22q143 -63 143 -182q0 -80 -43 -164q-41 -80 -105 -150l-120 -135q-57 -61 -105 -137q-43 -71 -43 -135q0 -225 211 -225q63 0 111 39q49 41 49 108q0 20 -10 57q29 43 88 43 q55 0 80 -32q27 -37 26 -72q0 -115 -100 -182q-102 -68 -250 -68q-180 0 -281 105q-100 102 -100 274zM426 1255q0 41 33 78q31 33 76 33q47 0 77 -33q33 -37 33 -78q0 -43 -32.5 -75.5t-77.5 -32.5q-43 0 -76 32.5t-33 75.5z" />
<glyph unicode="&#xc0;" horiz-adv-x="1206" d="M10 0l465 1221q12 37 31 69q14 25 39 45q12 10 45 27q29 14 43 16q33 6 45 8l22.5 4.5t16.5 4.5q12 -55 49 -174l360 -1057q25 -84 72 -164h-248q-6 49 -14 70l-137 401h-475l-156 -444q-4 -8 -4 -17q0 -4 -1 -7l-1 -3h-152zM279 1737l79 -99q66 -80 134 -120 q66 -39 165 -39q58 0 86 37q-47 14 -92 45q-39 27 -61 59q-10 14 -22.5 27.5t-22.5 27.5q-20 25 -49 45q-25 16 -66 17h-151zM358 569h406l-199 584z" />
<glyph unicode="&#xc1;" horiz-adv-x="1206" d="M10 0l465 1221q12 37 31 69q14 25 39 45q12 10 45 27q29 14 43 16q33 6 45 8l22.5 4.5t16.5 4.5q12 -55 49 -174l360 -1057q25 -84 72 -164h-248q-6 49 -14 70l-137 401h-475l-156 -444q-4 -8 -4 -17q0 -4 -1 -7l-1 -3h-152zM358 569h406l-199 584zM539 1516q47 14 92 45 q39 27 61 59q10 14 22.5 27.5t22.5 27.5q20 25 49 45q25 16 66 17h152l-80 -99q-66 -80 -133 -120q-66 -39 -166 -39q-58 0 -86 37z" />
<glyph unicode="&#xc2;" horiz-adv-x="1206" d="M10 0l465 1221q12 37 31 69q14 25 39 45q12 10 45 27q29 14 43 16q33 6 45 8l22.5 4.5t16.5 4.5q12 -55 49 -174l360 -1057q25 -84 72 -164h-248q-6 49 -14 70l-137 401h-475l-156 -444q-4 -8 -4 -17q0 -4 -1 -7l-1 -3h-152zM256 1489q37 6 78 32.5t76 61.5l67 68 q37 37 64 55q33 23 51 23h39h18q27 0 60 -23q37 -25 63 -55l64 -68q34 -34 73 -61t76 -33q0 -6 -31 -16q-35 -10 -55 -11q-113 0 -174 47q-66 49 -104 144q-20 -43 -43 -76q-23 -31 -54 -59q-37 -33 -75 -43q-47 -12 -107 -13q-20 0 -55 11q-31 10 -31 16zM358 569h406 l-199 584z" />
<glyph unicode="&#xc3;" horiz-adv-x="1206" d="M10 0l465 1221q12 37 31 69q14 25 39 45q12 10 45 27q29 14 43 16q33 6 45 8l22.5 4.5t16.5 4.5q12 -55 49 -174l360 -1057q25 -84 72 -164h-248q-6 49 -14 70l-137 401h-475l-156 -444q-4 -8 -4 -17q0 -4 -1 -7l-1 -3h-152zM201 1522q12 9 30 18q6 4 17.5 10l17.5 9 q12 6 41 14q20 6 47 6q35 0 107 -20q115 -33 141 -39q80 -18 160 -19q119 0 203 45q90 47 110 135q-31 -18 -51 -28q-12 -6 -55 -21q-31 -10 -74 -10q-47 0 -190 39q-135 37 -209 37q-78 0 -133.5 -16.5t-104.5 -59.5q-45 -39 -57 -100zM358 569h406l-199 584z" />
<glyph unicode="&#xc4;" horiz-adv-x="1206" d="M10 0l465 1221q12 37 31 69q14 25 39 45q12 10 45 27q29 14 43 16q33 6 45 8l22.5 4.5t16.5 4.5q12 -55 49 -174l360 -1057q25 -84 72 -164h-248q-6 49 -14 70l-137 401h-475l-156 -444q-4 -8 -4 -17q0 -4 -1 -7l-1 -3h-152zM270 1599.5q0 46.5 31 79.5t72 33t71 -33 q31 -34 31 -80t-31 -79t-71.5 -33t-71.5 33t-31 79.5zM358 569h406l-199 584zM750 1599.5q0 46.5 30 79.5q31 33 72 33t72 -33q31 -34 30.5 -80t-30.5 -79q-31 -33 -72 -33t-72 33q-30 33 -30 79.5z" />
<glyph unicode="&#xc5;" horiz-adv-x="1206" d="M10 0l465 1221q12 37 31 69q14 25 39 45q12 10 45 27q29 14 43 16q33 6 45 8l22.5 4.5t16.5 4.5q12 -55 49 -174l360 -1057q25 -84 72 -164h-248q-6 49 -14 70l-137 401h-475l-156 -444q-4 -8 -4 -17q0 -4 -1 -7l-1 -3h-152zM358 569h406l-199 584zM633 1800 q-84 0 -141.5 -51t-57.5 -133q0 -78 47 -125q45 -45 109 -45q84 0 143 53.5t59 132.5q0 76 -47 123q-44 45 -112 45zM616 1503q-43 0 -71.5 35t-28.5 101q0 55 26.5 79.5t63.5 24.5q41 0 72 -33q31 -34 30 -98q0 -53 -28 -82q-27 -27 -64 -27z" />
<glyph unicode="&#xc6;" horiz-adv-x="1558" d="M-8 0l629 1202q10 31 10 49q0 20 -6 33q-12 23 -19 33l15 31h411l350 6q20 -23 33 -76q12 -49 8 -96q-4 -45 -14 -56h-39q-10 47 -70 78q-63 33 -145 35l-174 6q-14 -227 -14 -500h321q29 0 47 7q16 6 25 14l4 6q4 0 4 -41q0 -25 -6 -43q-2 -8 -19 -29q-8 -12 -26 -20 q-18 -9 -31 -12q-14 -4 -35 -6q-16 -2 -34 -3h-33h-51q-16 0 -46 1.5t-45 1.5h-77q-3 -203 6 -480l4 -12h389q29 0 47 6q14 4 25 15l4 6q4 0 4 -41q0 -31 -14 -56q-12 -23 -29 -34q-12 -10 -47 -17q-41 -8 -47 -8h-47h-498q2 23 2 96v375h-383l-217 -430q-4 -8 -6 -14 q-4 -12 -4 -16.5t-1 -7.5l-1 -3h-160zM430 569h334v521q0 141 2 170l-41 -109z" />
<glyph unicode="&#xc7;" horiz-adv-x="1265" d="M106 645q0 213 82 377q84 170 230 258q151 92 344 92q127 0 248 -51q117 -49 151 -119q0 -35 -41 -100.5t-88 -85.5l-33 26q0 18 -16 56q-12 29 -45 67q-29 35 -82 59.5t-119 24.5q-80 0 -149 -28q-72 -29 -115 -76q-53 -57 -80 -115q-33 -72 -47 -141.5t-14 -155.5 q0 -117 28 -231q29 -111 84 -199q55 -86 146 -139q88 -51 201 -51q96 0 206 53q109 53 160 145q8 -14 8 -43q0 -123 -121 -202q-121 -82 -301 -91q-8 -25 -8 -47q0 -18 21 -26q25 -10 51 -19q12 -4 59 -22q25 -10 49 -41q20 -27 21 -72q0 -94 -67.5 -161.5t-166.5 -67.5 q-72 0 -116 28q-43 27 -43 76q0 27 8 45q47 -43 145 -43q49 0 82 20.5t33 57.5q0 27 -29 45q-31 20 -61 29q-35 10 -63.5 34.5t-28.5 61.5q0 61 57 100q-139 4 -250 56q-113 53 -182 141q-74 92 -111 213t-37 262z" />
<glyph unicode="&#xc8;" horiz-adv-x="983" d="M135 1313l15 35h307l350 6q25 -29 33 -76q10 -61 8 -96q-4 -45 -14 -56h-39q-10 47 -70 78q-63 33 -145 35l-174 6q-14 -209 -15 -500h322q29 0 47 7q12 4 22 14l6 6l3 -12q2 -8 2 -29q0 -25 -7 -43q-4 -12 -16 -29q-8 -10 -29 -20q-18 -9 -30 -12q-14 -4 -35 -6 q-16 -2 -35 -3h-33h-51q-16 0 -46 1.5t-44 1.5h-78q-3 -203 6 -480l4 -12h389q29 0 48 6q12 4 22 15l6 6q4 0 4 -41q0 -31 -8 -49q-8 -16 -24 -31q-18 -14 -33 -21q-20 -8 -39 -10q-33 -4 -41 -4h-39h-498l2 139v946q0 33 -4 82q-4 41 -8 58q-4 14 -12 39q-4 14 -14 28 q0 2 -6.5 9.5t-8.5 11.5zM207 1737l80 -99q66 -80 133 -120q66 -39 166 -39q55 0 86 37q-43 15 -80 36q-29 16 -55 47l-41 50q-8 10 -18.5 22t-18.5 23q-12 16 -43 30q-25 12 -58 13h-151z" />
<glyph unicode="&#xc9;" horiz-adv-x="983" d="M135 1313l15 35h307l350 6q25 -29 33 -76q10 -61 8 -96q-4 -45 -14 -56h-39q-10 47 -70 78q-63 33 -145 35l-174 6q-14 -209 -15 -500h322q29 0 47 7q12 4 22 14l6 6l3 -12q2 -8 2 -29q0 -25 -7 -43q-4 -12 -16 -29q-8 -10 -29 -20q-18 -9 -30 -12q-14 -4 -35 -6 q-16 -2 -35 -3h-33h-51q-16 0 -46 1.5t-44 1.5h-78q-3 -203 6 -480l4 -12h389q29 0 48 6q12 4 22 15l6 6q4 0 4 -41q0 -31 -8 -49q-8 -16 -24 -31q-18 -14 -33 -21q-20 -8 -39 -10q-33 -4 -41 -4h-39h-498l2 139v946q0 33 -4 82q-4 41 -8 58q-4 14 -12 39q-4 14 -14 28 q0 2 -6.5 9.5t-8.5 11.5zM334 1516q47 14 92 45q39 27 61 59q10 14 22.5 27.5t22.5 27.5q20 25 50 45q25 16 65 17h152l-80 -99q-66 -80 -133 -120q-66 -39 -166 -39q-58 0 -86 37z" />
<glyph unicode="&#xca;" horiz-adv-x="983" d="M137 1313l15 35h307l350 6q25 -29 33 -76q10 -61 8 -96q-4 -45 -14 -56h-39q-10 47 -70 78q-63 33 -145 35l-174 6q-14 -209 -15 -500h322q29 0 47 7q16 6 24 14l5 6q4 0 4 -41q0 -25 -7 -43q-4 -12 -16 -29q-8 -10 -29 -20q-18 -9 -30 -12q-14 -4 -35 -6q-16 -2 -35 -3 h-33h-51q-16 0 -46 1.5t-44 1.5h-78q-3 -203 6 -480l4 -12h390q29 0 47 6q12 4 22 15l6 6q4 0 4 -41q0 -31 -8 -49q-8 -16 -24 -31q-18 -14 -33 -21q-20 -8 -39 -10q-33 -4 -41 -4h-39h-498q2 35 2 94v45v946q0 33 -4 82q-4 41 -8 58q-4 14 -12 39q-4 14 -14 28 q0 2 -6.5 9.5t-8.5 11.5zM139 1489q37 6 78 32.5t76 61.5l67 68q37 37 64 55q33 23 51 23h39h18q27 0 60 -23q37 -25 63 -55l64 -68q39 -39 72 -61q37 -27 77 -33q0 -6 -30 -16q-35 -10 -56 -11q-113 0 -174 47q-66 49 -104 144q-43 -94 -105 -144q-59 -47 -174 -47 q-20 0 -55 11q-31 10 -31 16z" />
<glyph unicode="&#xcb;" horiz-adv-x="983" d="M135 1313l15 35h307l350 6q25 -29 33 -76q10 -61 8 -96q-4 -45 -14 -56h-39q-10 47 -70 78q-63 33 -145 35l-174 6q-14 -209 -15 -500h322q29 0 47 7q12 4 22 14l6 6l3 -12q2 -8 2 -29q0 -25 -7 -43q-4 -12 -16 -29q-8 -10 -29 -20q-18 -9 -30 -12q-14 -4 -35 -6 q-16 -2 -35 -3h-33h-51q-16 0 -46 1.5t-44 1.5h-78q-3 -203 6 -480l4 -12h389q29 0 48 6q12 4 22 15l6 6q4 0 4 -41q0 -31 -8 -49q-8 -16 -24 -31q-18 -14 -33 -21q-20 -8 -39 -10q-33 -4 -41 -4h-39h-498l2 139v946q0 33 -4 82q-4 41 -8 58q-4 14 -12 39q-4 14 -14 28 q0 2 -6.5 9.5t-8.5 11.5zM160 1599.5q0 46.5 30 79.5q31 33 72 33t72 -33q31 -34 31 -80t-31 -79t-72 -33t-72 33q-30 33 -30 79.5zM639 1599.5q0 46.5 31 79.5t71.5 33t71.5 -33q31 -34 31 -80t-31 -79t-72 -33t-71 33q-31 33 -31 79.5z" />
<glyph unicode="&#xcc;" horiz-adv-x="659" d="M37 1737l80 -99q66 -80 133 -120q66 -39 166 -39q55 0 86 37q-43 15 -80 36q-29 16 -55 47l-41 50q-8 10 -18.5 22t-18.5 23q-12 16 -43 30q-25 12 -58 13h-151zM180 1315l15 35l47 14q45 12 94 12q65 0 117 -24q-20 -418 -21 -811q0 -492 23 -541h-226q4 180 4 1090 q0 58 -6 98q-8 51 -12 61q-2 4 -7 18.5t-9 20.5q-9 17 -19 27z" />
<glyph unicode="&#xcd;" horiz-adv-x="659" d="M158 1516q47 14 92 45q39 27 61 59q10 14 22.5 27.5t22.5 27.5q20 25 50 45q25 16 65 17h152l-80 -99q-66 -80 -133 -120q-66 -39 -166 -39q-58 0 -86 37zM180 1315l15 35l47 14q45 12 94 12q65 0 117 -24q-20 -418 -21 -811q0 -492 23 -541h-226q4 180 4 1090 q0 58 -6 98q-8 51 -12 61q-2 4 -7 18.5t-9 20.5q-9 17 -19 27z" />
<glyph unicode="&#xce;" horiz-adv-x="659" d="M-31 1489q37 6 78 32.5t76 61.5l67 68q37 37 64 55q33 23 51 23h39h18q27 0 60 -23q37 -25 63 -55l64 -68q39 -39 72 -61q37 -27 77 -33q0 -6 -30 -16q-35 -10 -56 -11q-113 0 -174 47q-66 49 -104 144q-43 -94 -105 -144q-59 -47 -174 -47q-20 0 -55 11q-31 10 -31 16z M180 1315l15 35l47 14q45 12 94 12q65 0 117 -24q-20 -418 -21 -811q0 -492 23 -541h-226q4 180 4 1090q0 58 -6 98q-8 51 -12 61q-2 4 -7 18.5t-9 20.5q-9 17 -19 27z" />
<glyph unicode="&#xcf;" horiz-adv-x="659" d="M33 1599.5q0 46.5 30 79.5q31 33 72 33t72 -33q31 -34 31 -80t-31 -79t-72 -33t-72 33q-30 33 -30 79.5zM180 1315l15 35l47 14q45 12 94 12q65 0 117 -24q-20 -418 -21 -811q0 -492 23 -541h-226q4 180 4 1090q0 58 -6 98q-8 51 -12 61q-2 4 -7 18.5t-9 20.5 q-9 17 -19 27zM410 1599.5q0 46.5 30 79.5q31 33 72 33t72 -33q31 -34 30.5 -80t-30.5 -79q-31 -33 -72 -33t-72 33q-30 33 -30 79.5z" />
<glyph unicode="&#xd1;" horiz-adv-x="1536" d="M182 1315l15 35q82 33 122 20l807 -928q27 -27 52 -80l24 -51l-8 51q-6 51 -6 78q4 0 4 654q0 158 -53 221l14 35q37 25 102 24q59 0 93 -22q-25 -524 -25 -961q0 -213 10 -391h-112l-779 891l-39 51q-33 45 -45 76q6 -39 7 -90q0 -84 -2.5 -151.5t-2.5 -151.5 q0 -463 21 -625h-148v33q2 178 3 731v330q0 92 -11 131q-12 47 -43 90zM334 1522q12 9 31 18q6 4 17 10t17 9q12 6 41 14q23 6 47 6q35 0 107 -20q115 -33 141 -39q80 -18 160 -19q119 0 203 45q90 47 110 135q-31 -18 -51 -28q-12 -6 -55 -21q-31 -10 -74 -10 q-49 0 -192 39q-135 37 -207 37q-78 0 -133.5 -16.5t-104.5 -59.5q-45 -39 -57 -100z" />
<glyph unicode="&#xd2;" horiz-adv-x="1390" d="M100 651q0 -139 29 -241q31 -111 80 -191q47 -76 119 -135q70 -57 141.5 -84t151.5 -27q199 0 350 96.5t231 260.5q80 166 84 368q0 162 -43 291q-43 127 -119 213q-72 82 -172 125q-102 45 -211 45q-133 0 -256 -53q-115 -49 -202 -148q-84 -92 -133 -229 q-50 -135 -50 -291zM322 717q0 147 45 264q47 125 125 193q82 72 178 71q106 0 194 -82q90 -84 146 -225q53 -135 53 -309q0 -137 -45 -267q-43 -125 -123 -194q-82 -72 -176 -72q-111 0 -201 88q-90 86 -143 232q-53 143 -53 301zM397 1737l80 -99q66 -80 133 -120 q66 -39 166 -39q58 0 86 37q-47 14 -92 45q-39 27 -61 59q-10 14 -22.5 27.5t-22.5 27.5q-20 25 -50 45q-25 16 -65 17h-152z" />
<glyph unicode="&#xd3;" horiz-adv-x="1390" d="M100 651q0 -139 29 -241q31 -111 80 -191q47 -76 119 -135q70 -57 141.5 -84t151.5 -27q199 0 350 96.5t231 260.5q80 166 84 368q0 162 -43 291q-43 127 -119 213q-72 82 -172 125q-102 45 -211 45q-133 0 -256 -53q-115 -49 -202 -148q-84 -92 -133 -229 q-50 -135 -50 -291zM322 717q0 147 45 264q47 125 125 193q82 72 178 71q106 0 194 -82q90 -84 146 -225q53 -135 53 -309q0 -137 -45 -267q-43 -125 -123 -194q-82 -72 -176 -72q-111 0 -201 88q-90 86 -143 232q-53 143 -53 301zM522 1516q43 15 80 36q29 16 55 47l41 50 q8 10 18.5 22t18.5 23q12 16 43 30q25 12 58 13h151l-80 -99q-66 -80 -133 -120q-66 -39 -166 -39q-55 0 -86 37z" />
<glyph unicode="&#xd4;" horiz-adv-x="1390" d="M100 651q0 -139 29 -241q31 -111 80 -191q47 -76 119 -135q70 -57 141.5 -84t151.5 -27q199 0 350 96.5t231 260.5q80 166 84 368q0 162 -43 291q-43 127 -119 213q-72 82 -172 125q-102 45 -211 45q-133 0 -256 -53q-115 -49 -202 -148q-84 -92 -133 -229 q-50 -135 -50 -291zM322 717q0 147 45 264q47 125 125 193q82 72 178 71q106 0 194 -82q90 -84 146 -225q53 -135 53 -309q0 -137 -45 -267q-43 -125 -123 -194q-82 -72 -176 -72q-111 0 -201 88q-90 86 -143 232q-53 143 -53 301zM328 1489q37 6 78 33q45 29 77 61l66 68 q37 37 63 55q33 23 52 23h38h19q27 0 59 -23q37 -25 64 -55l63 -68q34 -34 74 -61q39 -27 76 -33q0 -6 -31 -16q-35 -10 -55 -11q-113 0 -174 47q-66 49 -105 144q-43 -94 -104 -144q-59 -47 -174 -47q-20 0 -56 11q-30 10 -30 16z" />
<glyph unicode="&#xd5;" horiz-adv-x="1390" d="M100 651q0 -139 29 -241q31 -111 80 -191q47 -76 119 -135q70 -57 141.5 -84t151.5 -27q199 0 350 96.5t231 260.5q80 166 84 368q0 162 -43 291q-43 127 -119 213q-72 82 -172 125q-102 45 -211 45q-133 0 -256 -53q-115 -49 -202 -148q-84 -92 -133 -229 q-50 -135 -50 -291zM256 1522q12 9 31 18q6 4 17 10t18 9q16 8 40.5 14t47.5 6q35 0 106 -20q115 -33 141 -39q80 -18 160 -19q119 0 203 45q90 47 110 135q-31 -18 -51 -28q-12 -6 -55 -21q-31 -10 -74 -10q-45 0 -190 39q-138 37 -209 37q-82 0 -133 -17q-57 -18 -105 -59 q-45 -39 -57 -100zM322 717q0 147 45 264q47 125 125 193q82 72 178 71q106 0 194 -82q90 -84 146 -225q53 -135 53 -309q0 -137 -45 -267q-43 -125 -123 -194q-82 -72 -176 -72q-111 0 -201 88q-90 86 -143 232q-53 143 -53 301z" />
<glyph unicode="&#xd6;" horiz-adv-x="1390" d="M100 651q0 -139 29 -241q31 -111 80 -191q47 -76 119 -135q70 -57 141.5 -84t151.5 -27q199 0 350 96.5t231 260.5q80 166 84 368q0 162 -43 291q-43 127 -119 213q-72 82 -172 125q-102 45 -211 45q-133 0 -256 -53q-115 -49 -202 -148q-84 -92 -133 -229 q-50 -135 -50 -291zM322 717q0 147 45 264q47 125 125 193q82 72 178 71q106 0 194 -82q90 -84 146 -225q53 -135 53 -309q0 -137 -45 -267q-43 -125 -123 -194q-82 -72 -176 -72q-111 0 -201 88q-90 86 -143 232q-53 143 -53 301zM348 1599.5q0 46.5 31 79.5t72 33t71 -33 q31 -34 31 -80t-31 -79t-71.5 -33t-71.5 33t-31 79.5zM827 1599.5q0 46.5 31 79.5t72 33t71 -33q31 -34 31 -80t-31 -79t-71.5 -33t-71.5 33t-31 79.5z" />
<glyph unicode="&#xd8;" horiz-adv-x="1390" d="M16 74l70 -72l150 156q68 -94 168 -141.5t208 -47.5q201 0 351 97q158 100 239 264q83 166 86 368q0 262 -94 420l51 45q18 16 29.5 27.5l17.5 17.5l10.5 10.5l12.5 12.5l12 12l27 35q8 14 8 29q0 16 -14 30q-10 10 -50 35q-66 -80 -157 -176q-74 90 -166 131 q-100 45 -209 45q-289 0 -473 -201q-184 -199 -191 -520q0 -250 82 -411zM324 713q0 221 102 377q102 154 244 153q98 0 172 -55q76 -55 135 -156l-608 -612q-45 129 -45 293zM401 332l617 618q59 -141 59 -348q-4 -119 -35 -207q-35 -98 -86 -161.5t-118 -102.5 q-65 -37 -129 -37q-96 0 -174 64q-83 65 -134 174z" />
<glyph unicode="&#xd9;" horiz-adv-x="1443" d="M168 1315l14 35l45 14q47 12 97 12q65 0 116 -24q-10 -283 -10 -897q0 -90 21 -152q18 -57 55 -100q29 -33 76 -58q51 -27 82 -30q37 -6 79 -6q151 0 252 79q98 78 109 195q8 0 8 711q0 158 -53 221l14 35q37 25 103 24q59 0 92 -22q-20 -422 -21 -908q0 -205 -139 -340 q-135 -133 -383 -133q-89 0 -160 13q-70 12 -131 43q-63 31 -106 84t-68 131q-27 84 -29 186q-10 434 -10 662q0 55 -6 98q-6 49 -12 61q-2 4 -7.5 18.5t-9.5 20.5q-8 17 -18 27zM401 1737l80 -99q66 -80 133 -120q66 -39 166 -39q58 0 86 37q-47 14 -92 45q-39 27 -61 59 q-10 14 -22.5 27.5t-22.5 27.5q-20 25 -50 45q-25 16 -65 17h-152z" />
<glyph unicode="&#xda;" horiz-adv-x="1443" d="M168 1315l14 35l45 14q47 12 97 12q65 0 116 -24q-10 -283 -10 -897q0 -90 21 -152q18 -57 55 -100q29 -33 76 -58q51 -27 82 -30q37 -6 79 -6q151 0 252 79q98 78 109 195q8 0 8 711q0 158 -53 221l14 35q37 25 103 24q59 0 92 -22q-20 -422 -21 -908q0 -205 -139 -340 q-135 -133 -383 -133q-89 0 -160 13q-70 12 -131 43q-63 31 -106 84t-68 131q-27 84 -29 186q-10 434 -10 662q0 55 -6 98q-6 49 -12 61q-2 4 -7.5 18.5t-9.5 20.5q-8 17 -18 27zM592 1516q47 14 92 45q39 27 61 59l43 55q18 23 52 45q25 16 65 17h152l-80 -99 q-66 -80 -133 -120q-66 -39 -166 -39q-58 0 -86 37z" />
<glyph unicode="&#xdb;" horiz-adv-x="1443" d="M168 1315l14 35l45 14q47 12 97 12q65 0 116 -24q-10 -283 -10 -897q0 -90 21 -152q18 -57 55 -100q29 -33 76 -58q51 -27 82 -30q37 -6 79 -6q151 0 252 79q98 78 109 195q8 0 8 711q0 158 -53 221l14 35q37 25 103 24q59 0 92 -22q-20 -422 -21 -908q0 -205 -139 -340 q-135 -133 -383 -133q-89 0 -160 13q-70 12 -131 43q-63 31 -106 84t-68 131q-27 84 -29 186q-10 434 -10 662q0 55 -6 98q-6 49 -12 61q-2 4 -7.5 18.5t-9.5 20.5q-8 17 -18 27zM377 1489q37 6 78 33q45 29 77 61l66 68q37 37 64 55q33 23 51 23h39h18q27 0 59 -23 q37 -25 64 -55l63 -68q34 -34 74 -61q39 -27 76 -33q0 -6 -31 -16q-35 -10 -55 -11q-113 0 -174 47q-66 49 -105 144q-43 -94 -104 -144q-59 -47 -174 -47q-20 0 -55 11q-31 10 -31 16z" />
<glyph unicode="&#xdc;" horiz-adv-x="1443" d="M168 1315l14 35l45 14q47 12 97 12q65 0 116 -24q-10 -283 -10 -897q0 -90 21 -152q18 -57 55 -100q29 -33 76 -58q51 -27 82 -30q37 -6 79 -6q151 0 252 79q98 78 109 195q8 0 8 711q0 158 -53 221l14 35q37 25 103 24q59 0 92 -22q-20 -422 -21 -908q0 -205 -139 -340 q-135 -133 -383 -133q-89 0 -160 13q-70 12 -131 43q-63 31 -106 84t-68 131q-27 84 -29 186q-10 434 -10 662q0 55 -6 98q-6 49 -12 61q-2 4 -7.5 18.5t-9.5 20.5q-8 17 -18 27zM389 1599.5q0 46.5 31 79.5t71.5 33t71.5 -33q31 -34 31 -80t-31 -79t-71.5 -33t-71.5 33 t-31 79.5zM868 1599.5q0 46.5 31 79.5t72 33t71 -33q31 -34 31 -80t-31 -79t-71.5 -33t-71.5 33t-31 79.5z" />
<glyph unicode="&#xdd;" horiz-adv-x="1062" d="M493 1532q51 14 92 53q41 37 62 76l20.5 39.5l20.5 38.5q22 37 49 61q27 25 66 25h122l-79 -140q-106 -186 -277 -186q-16 0 -49 14q-27 13 -27 19zM10 1313l15 35q61 29 143 28q86 0 121 -37q47 -119 143 -303q94 -184 154 -278l10 26l25 50l170 301q26 48 26 93 q0 44 -24 85l14 35q63 29 115 28q47 0 108 -28q0 -35 -41 -129q-45 -102 -78 -152l-252 -405q0 -6 -1 -53.5t-1 -88.5v-168q0 -252 17 -352h-223v33q0 25 1 92.5t1 107.5v150q0 211 -2 233q-16 16 -43 64l-197 344l-57 104q-41 76 -43 80q-12 22 -31 49q-18 29 -33 37 q-15 10 -37 19z" />
<glyph unicode="&#xdf;" horiz-adv-x="1169" d="M90 942l10 62l25 6q25 6 47 28q27 27 29 62q3 55 18 110q18 68 47 119q35 61 84 109q47 45 131 75.5t185 30.5q83 0 153 -24q76 -27 117 -76q47 -57 47 -131q0 -63 -25 -131q-20 -55 -63 -121l-72 -105q-45 -66 -63 -100q-25 -49 -25 -86q0 -29 21 -55q22 -28 55 -49 l76 -48q40 -25 80 -55q47 -37 75 -67q35 -39 56 -84q20 -47 20 -109q0 -152 -98 -242q-96 -88 -260 -88q-115 0 -201 47q-88 49 -88 130q0 39 23 71q10 -49 75 -92q68 -43 201 -43q78 0 127 43t49 111q0 35 -20 63q-23 33 -52 55q-27 23 -71 50q-8 4 -78 53q-47 33 -72 57 q-27 27 -51 76q-20 41 -20 92q0 55 24 111q35 80 56 108l67 103q31 49 57 116q23 59 23 133q0 170 -199 170q-102 0 -168 -65q-63 -63 -63 -178q0 -109 -2 -271q0 -68 -1 -135t-2 -102t-1 -45q0 -436 33 -631h-209v29q0 35 2 100q2 35 3 110.5t1 114.5q2 86 2 205 q0 274 -27 309q-25 31 -43 47q-25 20 -33 23z" />
<glyph unicode="&#xe0;" horiz-adv-x="1017" d="M86 238q0 98 57.5 167.5t151.5 104.5t205 35q74 0 153 -21q4 111 4 123q0 51 -8 117q-4 39 -26 90q-20 47 -58 68q-41 23 -100 22q-68 0 -113 -45t-45 -100v-11q0 -2 1 -6l1 -4q-27 -20 -69.5 -20t-69.5 24q-29 25 -29 68q0 59 49 102q51 45 123 66q70 20 156 20 q371 0 371 -293v-47q0 -8 -1 -49t-1 -76q0 -25 -1 -100.5t-1 -124.5q0 -150 28 -213q37 -74 142 -74v-36q-35 -20 -88 -35q-61 -16 -103 -17q-39 0 -70 19q-29 18 -45 43q-15 25 -24 55q-14 45 -14 51q-2 14 -3 33q-29 -90 -116.5 -145.5t-175.5 -55.5q-94 0 -158 39 q-68 41 -94 99q-29 61 -29 127zM223 1483l80 -140q106 -186 277 -186q20 0 49 14q27 12 26 19q-51 14 -92 53q-37 35 -59 76l-43 78q-22 37 -49 61q-27 25 -66 25h-123zM270 272q0 -57 41 -104t119 -47q74 0 137.5 30.5t79.5 67.5l6 256q-4 0 -18 -1t-25 -1q-28 0 -92 -12 q-59 -12 -115 -31q-52 -18 -92 -61q-41 -46 -41 -97z" />
<glyph unicode="&#xe1;" horiz-adv-x="1017" d="M86 238q0 98 57.5 167.5t151.5 104.5t205 35q74 0 153 -21q4 111 4 123q0 51 -8 117q-4 39 -26 90q-20 47 -58 68q-41 23 -100 22q-68 0 -113 -45t-45 -100v-11q0 -2 1 -6l1 -4q-27 -20 -69.5 -20t-69.5 24q-29 25 -29 68q0 59 49 102q51 45 123 66q70 20 156 20 q371 0 371 -293v-47q0 -8 -1 -49t-1 -76q0 -25 -1 -100.5t-1 -124.5q0 -150 28 -213q37 -74 142 -74v-36q-35 -20 -88 -35q-61 -16 -103 -17q-39 0 -70 19q-29 18 -45 43q-15 25 -24 55q-14 45 -14 51q-2 14 -3 33q-29 -90 -116.5 -145.5t-175.5 -55.5q-94 0 -158 39 q-68 41 -94 99q-29 61 -29 127zM270 272q0 -57 41 -104t119 -47q74 0 137.5 30.5t79.5 67.5l6 256q-4 0 -18 -1t-25 -1q-28 0 -92 -12q-59 -12 -115 -31q-52 -18 -92 -61q-41 -46 -41 -97zM358 1190q47 14 91 53q45 41 63 76q12 20 21.5 39.5l19.5 38.5q22 37 49 61 q29 25 66 25h123l-80 -140q-106 -186 -277 -186q-16 0 -49 14q-27 13 -27 19z" />
<glyph unicode="&#xe2;" horiz-adv-x="1017" d="M86 238q0 98 57.5 167.5t151.5 104.5t205 35q74 0 153 -21q4 111 4 123q0 51 -8 117q-4 39 -26 90q-20 47 -58 68q-41 23 -100 22q-68 0 -113 -45t-45 -100v-11q0 -2 1 -6l1 -4q-27 -20 -69.5 -20t-69.5 24q-29 25 -29 68q0 59 49 102q51 45 123 66q70 20 156 20 q371 0 371 -293v-47q0 -8 -1 -49t-1 -76q0 -25 -1 -100.5t-1 -124.5q0 -150 28 -213q37 -74 142 -74v-36q-35 -20 -88 -35q-61 -16 -103 -17q-39 0 -70 19q-29 18 -45 43q-15 25 -24 55q-14 45 -14 51q-2 14 -3 33q-29 -90 -116.5 -145.5t-175.5 -55.5q-94 0 -158 39 q-68 41 -94 99q-29 61 -29 127zM174 1190q41 10 86 57q49 51 80 101q35 53 69.5 94t61.5 41h33h16q27 0 53 -27q23 -23 56 -70l57 -81q18 -29 64 -74q35 -35 67 -41q0 -6 -26 -19q-33 -14 -50 -14q-41 0 -69.5 6t-53.5 25q-27 20 -38 35q-20 25 -41 55q-16 18 -29 68l-14 45 l-15 -45q-15 -46 -30 -68q-39 -59 -82 -90t-119 -31q-16 0 -49 14q-27 13 -27 19zM270 272q0 -57 41 -104t119 -47q74 0 137.5 30.5t79.5 67.5l6 256q-4 0 -18 -1t-25 -1q-28 0 -92 -12q-59 -12 -115 -31q-52 -18 -92 -61q-41 -46 -41 -97z" />
<glyph unicode="&#xe3;" horiz-adv-x="1017" d="M86 238q0 98 57.5 167.5t151.5 104.5t205 35q74 0 153 -21q4 111 4 123q0 51 -8 117q-4 39 -26 90q-20 47 -58 68q-41 23 -100 22q-68 0 -113 -45t-45 -100v-11q0 -2 1 -6l1 -4q-27 -20 -69.5 -20t-69.5 24q-29 25 -29 68q0 59 49 102q51 45 123 66q70 20 156 20 q371 0 371 -293v-47q0 -8 -1 -49t-1 -76q0 -25 -1 -100.5t-1 -124.5q0 -150 28 -213q37 -74 142 -74v-36q-35 -20 -88 -35q-61 -16 -103 -17q-39 0 -70 19q-29 18 -45 43q-15 25 -24 55q-14 45 -14 51q-2 14 -3 33q-29 -90 -116.5 -145.5t-175.5 -55.5q-94 0 -158 39 q-68 41 -94 99q-29 61 -29 127zM152 1241q70 55 129 51q37 -4 125 -32q102 -35 159 -37q102 -6 176 34q78 43 97 129q-86 -59 -152 -55q-31 2 -131 35q-92 29 -145 33q-59 2 -115 -10q-49 -12 -92 -52q-39 -35 -51 -96zM270 272q0 -57 41 -104t119 -47q74 0 137.5 30.5 t79.5 67.5l6 256q-4 0 -18 -1t-25 -1q-28 0 -92 -12q-59 -12 -115 -31q-52 -18 -92 -61q-41 -46 -41 -97z" />
<glyph unicode="&#xe4;" horiz-adv-x="1017" d="M86 238q0 98 57.5 167.5t151.5 104.5t205 35q74 0 153 -21q4 111 4 123q0 51 -8 117q-4 39 -26 90q-20 47 -58 68q-41 23 -100 22q-68 0 -113 -45t-45 -100v-11q0 -2 1 -6l1 -4q-27 -20 -69.5 -20t-69.5 24q-29 25 -29 68q0 59 49 102q51 45 123 66q70 20 156 20 q371 0 371 -293v-47q0 -8 -1 -49t-1 -76q0 -25 -1 -100.5t-1 -124.5q0 -150 28 -213q37 -74 142 -74v-36q-35 -20 -88 -35q-61 -16 -103 -17q-39 0 -70 19q-29 18 -45 43q-15 25 -24 55q-14 45 -14 51q-2 14 -3 33q-29 -90 -116.5 -145.5t-175.5 -55.5q-94 0 -158 39 q-68 41 -94 99q-29 61 -29 127zM205 1313q0 46 31 80q31 33 71.5 32.5t71.5 -32.5q31 -34 31 -80t-31 -80q-31 -33 -72 -33t-71 33q-31 34 -31 80zM270 272q0 -57 41 -104t119 -47q74 0 137.5 30.5t79.5 67.5l6 256q-4 0 -18 -1t-25 -1q-28 0 -92 -12q-59 -12 -115 -31 q-52 -18 -92 -61q-41 -46 -41 -97zM582 1313q0 46 30 80q31 33 72 32.5t72 -32.5q31 -34 30.5 -80t-30.5 -80q-31 -33 -72 -33t-72 33q-30 34 -30 80z" />
<glyph unicode="&#xe5;" horiz-adv-x="1017" d="M86 238q0 98 57.5 167.5t151.5 104.5t205 35q74 0 153 -21q4 111 4 123q0 51 -8 117q-4 39 -26 90q-20 47 -58 68q-41 23 -100 22q-68 0 -113 -45t-45 -100v-11q0 -2 1 -6l1 -4q-27 -20 -69.5 -20t-69.5 24q-29 25 -29 68q0 59 49 102q51 45 123 66q70 20 156 20 q371 0 371 -293v-47q0 -8 -1 -49t-1 -76q0 -25 -1 -100.5t-1 -124.5q0 -150 28 -213q37 -74 142 -74v-36q-35 -20 -88 -35q-61 -16 -103 -17q-39 0 -70 19q-29 18 -45 43q-15 25 -24 55q-14 45 -14 51q-2 14 -3 33q-29 -90 -116.5 -145.5t-175.5 -55.5q-94 0 -158 39 q-68 41 -94 99q-29 61 -29 127zM270 272q0 -57 41 -104t119 -47q74 0 137.5 30.5t79.5 67.5l6 256q-4 0 -18 -1t-25 -1q-28 0 -92 -12q-59 -12 -115 -31q-52 -18 -92 -61q-41 -46 -41 -97zM328 1327q0 -78 47 -125q45 -45 108 -45q84 0 143.5 53.5t59.5 132.5q0 76 -47 123 q-45 45 -113 45q-84 0 -141 -51t-57 -133zM410 1350q0 55 26.5 79.5t63.5 24.5q43 0 73 -33q29 -31 29 -98q0 -53 -29 -82q-27 -27 -63 -27q-41 0 -70 35q-30 38 -30 101z" />
<glyph unicode="&#xe6;" horiz-adv-x="1527" d="M90 238q0 309 569 352q2 18 3 61q0 68 -3 94q-2 35 -16 80q-14 43 -31 64q-20 25 -57 39q-39 16 -86 16q-68 0 -113 -45t-45 -100l2 -21q-27 -20 -69.5 -20t-69.5 24q-29 25 -29 68q0 59 50 102q51 45 122 66q70 20 156 20q117 0 201 -37q82 -37 121 -110q37 68 118 108 q78 39 166 39q61 0 121 -16q53 -14 92 -41q45 -31 68 -57q20 -27 45 -70q16 -29 27 -72q12 -53 14 -63q4 -37 4 -53v-68q-20 -10 -170 -23l-299 -20l-147 -8q15 -418 307 -418q90 0 176 49q90 51 143 131l4 -16q4 -20 4 -33q0 -74 -59 -143q-61 -70 -152 -107 q-92 -37 -188 -37q-268 0 -367 240q-129 -240 -331 -240q-94 0 -158 39q-68 41 -94 99q-29 61 -29 127zM274 272q0 -57 41 -104t119 -47q163 0 252 141q-20 61 -27 266q-18 0 -65 -10t-100 -31q-55 -22 -105 -49q-45 -27 -82 -71q-33 -42 -33 -95zM825 610l445 62v6 q-2 14 -6 39q-6 33 -11 49q-9 31 -24 55q-14 23 -39 51q-16 18 -60 37q-35 14 -79 15q-52 0 -93 -25q-43 -27 -67 -74q-27 -51 -41 -98q-16 -52 -25 -117z" />
<glyph unicode="&#xe7;" horiz-adv-x="964" d="M96 461q0 254 133 415.5t349 161.5q82 0 149 -18q74 -20 119 -59q49 -43 49 -107q0 -35 -28.5 -63.5t-75.5 -28.5q-39 0 -68 29q-16 133 -186 133q-78 0 -138 -58q-59 -55 -90 -147q-31 -89 -30 -191q0 -106 32 -192q34 -89 105 -148q72 -59 172 -59q89 0 178 49 q86 47 141 131l4 -16q4 -20 4 -33q0 -70 -53 -135q-51 -63 -133 -102q-78 -37 -174 -48q-8 -25 -8 -47q0 -18 20 -26q25 -10 51 -19q12 -4 60 -22q25 -10 49 -41q20 -27 21 -72q0 -94 -68 -161.5t-166 -67.5q-72 0 -117 28q-43 27 -43 76q0 27 8 45q47 -43 146 -43 q49 0 82 20.5t33 57.5q0 22 -19 37q-23 18 -47 27l-53 22q-27 12 -45 33q-18 23 -19 51q0 61 58 100q-84 4 -152 33q-72 31 -129 88q-53 53 -88 152q-33 92 -33 215z" />
<glyph unicode="&#xe8;" horiz-adv-x="1005" d="M96 461q0 160 54 295q51 131 149 207q96 76 227 75q72 0 131 -18q61 -18 99 -47q39 -29 65 -68q25 -35 41 -76q10 -25 23 -81q10 -47 10 -70q0 -8 1 -26.5t1 -28.5v-48q-43 -25 -119 -24l-493 6q2 -20 2 -82q0 -160 84 -254q84 -92 217 -92q89 0 178 49q86 47 141 131 l4 -16q4 -20 4 -33q0 -74 -59 -143q-61 -70 -151 -107q-92 -37 -189 -37q-72 0 -127 17q-59 18 -113 55q-49 35 -92 94q-37 51 -63 140q-21 71 -25 182zM279 639l438 8q0 111 -58 193q-59 84 -161 84q-51 0 -86 -21q-37 -23 -62 -63q-29 -49 -41 -88q-16 -50 -30 -113z M231 1483l80 -140q106 -186 276 -186q16 0 49 14q27 12 27 19q-47 14 -90 53q-41 37 -61 76l-43 78q-22 37 -50 61q-29 25 -65 25h-123z" />
<glyph unicode="&#xe9;" horiz-adv-x="1005" d="M96 461q0 160 54 295q51 131 149 207q96 76 227 75q72 0 131 -18q61 -18 99 -47q39 -29 65 -68q25 -35 41 -76q10 -25 23 -81q10 -47 10 -70q0 -8 1 -26.5t1 -28.5v-48q-43 -25 -119 -24l-493 6q2 -20 2 -82q0 -160 84 -254q84 -92 217 -92q89 0 178 49q86 47 141 131 l4 -16q4 -20 4 -33q0 -74 -59 -143q-61 -70 -151 -107q-92 -37 -189 -37q-72 0 -127 17q-59 18 -113 55q-49 35 -92 94q-37 51 -63 140q-21 71 -25 182zM279 639l438 8q0 111 -58 193q-59 84 -161 84q-51 0 -86 -21q-37 -23 -62 -63q-29 -49 -41 -88q-16 -50 -30 -113z M350 1190q43 15 80 43q29 23 55 59l39 66l18.5 31.5l18.5 31.5q14 25 41 45q23 16 57 17h123l-80 -140q-106 -186 -276 -186q-16 0 -49 14q-27 13 -27 19z" />
<glyph unicode="&#xea;" horiz-adv-x="1005" d="M96 461q0 160 54 295q51 131 149 207q96 76 227 75q72 0 131 -18q61 -18 99 -47q39 -29 65 -68q25 -35 41 -76q10 -25 23 -81q10 -47 10 -70q0 -8 1 -26.5t1 -28.5v-48q-43 -25 -119 -24l-493 6q2 -20 2 -82q0 -160 84 -254q84 -92 217 -92q89 0 178 49q86 47 141 131 l4 -16q4 -20 4 -33q0 -74 -59 -143q-61 -70 -151 -107q-92 -37 -189 -37q-72 0 -127 17q-59 18 -113 55q-49 35 -92 94q-37 51 -63 140q-21 71 -25 182zM279 639l438 8q0 111 -58 193q-59 84 -161 84q-51 0 -86 -21q-37 -23 -62 -63q-29 -49 -41 -88q-16 -50 -30 -113z M194 1190q41 10 86 57q49 51 80 101q35 53 69.5 94t61.5 41h33h16q27 0 53 -27q23 -23 56 -70l57 -81q18 -29 64 -74q35 -35 67 -41q0 -6 -26 -19q-33 -14 -50 -14q-41 0 -69.5 6t-53.5 25q-27 20 -38 35q-20 25 -41 55q-16 18 -29 68l-14 45l-15 -45q-15 -46 -30 -68 q-39 -59 -82 -90t-119 -31q-16 0 -49 14q-27 13 -27 19z" />
<glyph unicode="&#xeb;" horiz-adv-x="1005" d="M96 461q0 160 54 295q51 131 149 207q96 76 227 75q72 0 131 -18q61 -18 99 -47q39 -29 65 -68q25 -35 41 -76q10 -25 23 -81q10 -47 10 -70q0 -8 1 -26.5t1 -28.5v-48q-43 -25 -119 -24l-493 6q2 -20 2 -82q0 -160 84 -254q84 -92 217 -92q89 0 178 49q86 47 141 131 l4 -16q4 -20 4 -33q0 -74 -59 -143q-61 -70 -151 -107q-92 -37 -189 -37q-72 0 -127 17q-59 18 -113 55q-49 35 -92 94q-37 51 -63 140q-21 71 -25 182zM279 639l438 8q0 111 -58 193q-59 84 -161 84q-51 0 -86 -21q-37 -23 -62 -63q-29 -49 -41 -88q-16 -50 -30 -113z M223 1313q0 46 31 80q31 33 72 32.5t72 -32.5q31 -34 30.5 -80t-30.5 -80q-31 -33 -72 -33t-72 33q-31 34 -31 80zM600 1313q0 46 31 80q31 33 72 32.5t71 -32.5q31 -34 31 -80t-31 -80q-31 -33 -71.5 -33t-71.5 33t-31 80z" />
<glyph unicode="&#xec;" horiz-adv-x="571" d="M395 0h-202v8l16 690q3 68 -6 117t-25 74q-14 23 -31 39q-14 14 -24 16l-12 2v37q78 51 182 51q66 0 88 -45q20 -41 14 -127l-6 -209q-6 -209 -6 -499q0 -96 12 -154zM12 1483l80 -140q106 -186 276 -186q16 0 49 14q27 12 27 19q-47 14 -90 53q-41 37 -61 76l-43 78 q-22 37 -50 61q-29 25 -65 25h-123z" />
<glyph unicode="&#xed;" horiz-adv-x="571" d="M111 946v37q78 51 182 51q66 0 88 -45q20 -41 14 -127l-6 -209q-6 -209 -6 -499q0 -95 12 -154h-202v8l16 690q3 68 -6 117t-25 74q-14 23 -31 39q-14 14 -24 16zM127 1190q47 14 90 53q41 37 62 76l43 78q22 37 49 61q27 25 65 25h123l-80 -140q-106 -186 -276 -186 q-16 0 -49 14q-27 13 -27 19z" />
<glyph unicode="&#xee;" horiz-adv-x="571" d="M395 0h-202v8l16 690q3 68 -6 117t-25 74q-14 23 -31 39q-14 14 -24 16l-12 2v37q78 51 182 51q66 0 88 -45q20 -41 14 -127l-6 -209q-6 -209 -6 -499q0 -96 12 -154zM-29 1190q41 10 86 57q49 51 80 101q35 53 69.5 94t61.5 41h33h16q27 0 53 -27q23 -23 56 -70l57 -81 q18 -29 64 -74q35 -35 67 -41q0 -6 -26 -19q-33 -14 -50 -14q-41 0 -69.5 6t-53.5 25q-27 20 -38 35q-20 25 -41 55q-16 18 -29 68l-14 45l-15 -45q-15 -46 -30 -68q-39 -59 -82 -90t-119 -31q-16 0 -49 14q-27 13 -27 19z" />
<glyph unicode="&#xef;" horiz-adv-x="571" d="M395 0h-202v8l16 690q3 68 -6 117t-25 74q-14 23 -31 39q-14 14 -24 16l-12 2v37q78 51 182 51q66 0 88 -45q20 -41 14 -127l-6 -209q-6 -209 -6 -499q0 -96 12 -154zM-3 1313q0 46 31 80q31 33 72 32.5t72 -32.5q31 -34 30.5 -80t-30.5 -80q-31 -33 -72 -33t-72 33 q-31 34 -31 80zM374 1313q0 46 31 80q31 33 72 32.5t71 -32.5q31 -34 31 -80t-31 -80q-31 -33 -71.5 -33t-71.5 33t-31 80z" />
<glyph unicode="&#xf1;" horiz-adv-x="1200" d="M102 983q82 51 183 51q33 0 57 -14q27 -14 35 -37q9 -25 12 -55q2 -15 2 -32t-2 -34l-10 -57q23 41 59 80q31 35 84 73q47 35 113 58q68 23 137 22q104 0 174 -73q68 -72 72 -170q0 -78 -2 -195q-1 -48 -1 -102q0 -81 3 -246q2 -164 20 -252h-200q-5 32 -6 65q0 16 2 33 l4 492v24q0 134 -33 195q-35 63 -133 68q-174 0 -289 -140q0 -293 4 -583q0 -72 16 -154h-204v8l8 690q0 74 -8 117q-8 45 -27 74q-14 23 -31 39q-12 12 -26 16l-11 2zM260 1241q72 55 129 51q37 -4 125 -32q102 -35 160 -37q102 -6 176 34q78 43 96 129q-86 -59 -151 -55 q-31 2 -131 35q-92 29 -146 33q-59 2 -114 -10q-49 -12 -93 -52q-39 -35 -51 -96z" />
<glyph unicode="&#xf2;" d="M96 487q0 -4 1 -17t1 -21q0 -20 11 -78q8 -49 24 -101q15 -49 49 -104q37 -59 76 -96q45 -41 117 -70q68 -27 157 -27q111 0 203 45q102 49 162 121q68 80 102 176q37 102 37 211q0 129 -35 226q-37 100 -98 161.5t-137 92.5q-82 33 -164 32q-141 0 -260 -71 q-115 -70 -180.5 -197t-65.5 -283zM297 573q0 53 8 97q10 55 27 96q18 45 45 86q25 37 65.5 59.5t85.5 22.5q127 0 217 -135q88 -133 89 -338q0 -170 -72 -278.5t-174 -108.5q-123 0 -207 145t-84 354zM279 1483l80 -140q106 -186 276 -186q16 0 49 14q27 12 27 19 q-47 14 -90 53q-41 37 -61 76l-43 78q-22 37 -50 61q-29 25 -65 25h-123z" />
<glyph unicode="&#xf3;" d="M96 487q0 -4 1 -17t1 -21q0 -20 11 -78q8 -49 24 -101q15 -49 49 -104q37 -59 76 -96q45 -41 117 -70q68 -27 157 -27q111 0 203 45q102 49 162 121q68 80 102 176q37 102 37 211q0 129 -35 226q-37 100 -98 161.5t-137 92.5q-82 33 -164 32q-141 0 -260 -71 q-115 -70 -180.5 -197t-65.5 -283zM297 573q0 53 8 97q10 55 27 96q18 45 45 86q25 37 65.5 59.5t85.5 22.5q127 0 217 -135q88 -133 89 -338q0 -170 -72 -278.5t-174 -108.5q-123 0 -207 145t-84 354zM413 1190q51 14 92 53q41 37 62 76l20.5 39.5l20.5 38.5q22 37 49 61 q27 25 66 25h122l-79 -140q-106 -186 -277 -186q-16 0 -49 14q-27 13 -27 19z" />
<glyph unicode="&#xf4;" d="M96 487q0 -4 1 -17t1 -21q0 -20 11 -78q8 -49 24 -101q15 -49 49 -104q37 -59 76 -96q45 -41 117 -70q68 -27 157 -27q111 0 203 45q102 49 162 121q68 80 102 176q37 102 37 211q0 129 -35 226q-37 100 -98 161.5t-137 92.5q-82 33 -164 32q-141 0 -260 -71 q-115 -70 -180.5 -197t-65.5 -283zM297 573q0 53 8 97q10 55 27 96q18 45 45 86q25 37 65.5 59.5t85.5 22.5q127 0 217 -135q88 -133 89 -338q0 -170 -72 -278.5t-174 -108.5q-123 0 -207 145t-84 354zM244 1190q41 10 86 57q49 51 80 101q35 53 69.5 94t61.5 41h33h16 q27 0 53 -27q23 -23 56 -70l57 -81q18 -29 64 -74q35 -35 67 -41q0 -6 -26 -19q-33 -14 -50 -14q-41 0 -69.5 6t-53.5 25q-27 20 -38 35q-20 25 -41 55q-16 18 -29 68l-14 45l-15 -45q-15 -46 -30 -68q-39 -59 -82 -90t-119 -31q-16 0 -49 14q-27 13 -27 19z" />
<glyph unicode="&#xf5;" d="M96 487q0 -4 1 -17t1 -21q0 -20 11 -78q8 -49 24 -101q15 -49 49 -104q37 -59 76 -96q45 -41 117 -70q68 -27 157 -27q111 0 203 45q102 49 162 121q68 80 102 176q37 102 37 211q0 129 -35 226q-37 100 -98 161.5t-137 92.5q-82 33 -164 32q-141 0 -260 -71 q-115 -70 -180.5 -197t-65.5 -283zM297 573q0 53 8 97q10 55 27 96q18 45 45 86q25 37 65.5 59.5t85.5 22.5q127 0 217 -135q88 -133 89 -338q0 -170 -72 -278.5t-174 -108.5q-123 0 -207 145t-84 354zM223 1241q72 55 129 51q37 -4 125 -32q102 -35 160 -37q102 -6 176 34 q78 43 96 129q-86 -59 -151 -55q-31 2 -131 35q-92 29 -146 33q-59 2 -114 -10q-49 -12 -93 -52q-39 -35 -51 -96z" />
<glyph unicode="&#xf6;" d="M96 487q0 -4 1 -17t1 -21q0 -20 11 -78q8 -49 24 -101q15 -49 49 -104q37 -59 76 -96q45 -41 117 -70q68 -27 157 -27q111 0 203 45q102 49 162 121q68 80 102 176q37 102 37 211q0 129 -35 226q-37 100 -98 161.5t-137 92.5q-82 33 -164 32q-141 0 -260 -71 q-115 -70 -180.5 -197t-65.5 -283zM297 573q0 53 8 97q10 55 27 96q18 45 45 86q25 37 65.5 59.5t85.5 22.5q127 0 217 -135q88 -133 89 -338q0 -170 -72 -278.5t-174 -108.5q-123 0 -207 145t-84 354zM256 1313q0 46 31 80q31 33 72 32.5t72 -32.5q31 -34 30.5 -80 t-30.5 -80q-31 -33 -72 -33t-72 33q-31 34 -31 80zM633 1313q0 46 31 80q31 33 72 32.5t71 -32.5q31 -34 31 -80t-31 -80q-31 -33 -71.5 -33t-71.5 33t-31 80z" />
<glyph unicode="&#xf7;" horiz-adv-x="999" d="M180 461v131q0 -8 344 -8h103q16 0 44.5 1t41.5 1q29 0 61 4q25 2 35 10q-6 -33 -18 -53q-16 -29 -29 -39q-16 -14 -41 -25q-29 -12 -47 -14q-16 -2 -53 -6q-18 -2 -58 -2h-57q-2 0 -51 1t-101 1h-137q-31 0 -37 -2zM365 229q0 47 34 82q33 33 82 33t82 -32.5t33 -82 t-33 -82.5q-35 -35 -82 -34.5t-81.5 35t-34.5 81.5zM365 819q0 47 34 82q33 33 82 33t82 -33t33 -82q0 -51 -33 -84t-82 -33t-82 33q-34 35 -34 84z" />
<glyph unicode="&#xf8;" d="M59 74l70 -72l94 102q113 -131 309 -131q111 0 203 45q102 49 162 121q68 80 102 176q37 102 37 211q0 188 -80 318l19 16q96 84 96 117q0 16 -14 31q-10 10 -49 34l-107 -127q-119 123 -299 123q-141 0 -260 -71q-115 -70 -180.5 -197t-65.5 -283q0 -37 2 -59 q2 -27 23 -111q18 -74 51 -135zM297 573q0 53 8 97q10 55 27 96q18 45 45 86q25 37 65.5 59.5t85.5 22.5q68 0 129 -43q59 -41 103 -119l-432 -434q-31 104 -31 235zM365 246l434 438q35 -109 35 -223q0 -170 -72 -278.5t-174 -108.5q-68 0 -125 45t-98 127z" />
<glyph unicode="&#xf9;" horiz-adv-x="1202" d="M90 948v35q25 18 80 35q53 16 90 16q68 0 94.5 -32.5t26.5 -100.5v-168l-2 -319v-25q0 -134 31 -190q35 -63 129 -64q170 0 282 135q6 252 6 410q0 74 -8 125q-8 55 -18 78q-16 35 -33 47q-20 16 -43 22v35l23 10q18 10 63 25q41 12 72 12q84 0 106 -37q23 -39 23 -172 v-516q0 -29 4 -69q2 -12 5 -32t3 -22q4 -27 12 -43q4 -6 9.5 -16t7.5 -14q4 -8 20 -21q18 -14 21 -14l8 -3q8 -3 14 -5q20 -4 22.5 -4t9.5 -1.5t13 -1.5t11.5 -1t7.5 -1v-36q-20 -14 -78 -33t-105 -19q-41 0 -69 15q-31 14 -47 35q-14 16 -29 53q-14 35 -16 61q-4 41 -7 66 q-20 -35 -61 -80q-39 -43 -84 -74q-51 -35 -111 -55q-61 -20 -137 -21q-104 0 -172 74q-70 76 -71 170l4 277q1 67 1 114q0 75 -3 119q-6 86 -29 147q-10 27 -29 48q-20 20 -33 22zM301 1483l80 -140q106 -186 276 -186q16 0 49 14q27 12 27 19q-47 14 -90 53q-41 37 -61 76 l-43 78q-22 37 -50 61q-29 25 -65 25h-123z" />
<glyph unicode="&#xfa;" horiz-adv-x="1202" d="M90 948v35q25 18 80 35q53 16 90 16q68 0 94.5 -32.5t26.5 -100.5v-168l-2 -319v-25q0 -134 31 -190q35 -63 129 -64q170 0 282 135q6 252 6 410q0 74 -8 125q-8 55 -18 78q-16 35 -33 47q-20 16 -43 22v35l23 10q18 10 63 25q41 12 72 12q84 0 106 -37q23 -39 23 -172 v-516q0 -29 4 -69q2 -12 5 -32t3 -22q4 -27 12 -43q4 -6 9.5 -16t7.5 -14q4 -8 20 -21q18 -14 21 -14l8 -3q8 -3 14 -5q20 -4 22.5 -4t9.5 -1.5t13 -1.5t11.5 -1t7.5 -1v-36q-20 -14 -78 -33t-105 -19q-41 0 -69 15q-31 14 -47 35q-14 16 -29 53q-14 35 -16 61q-4 41 -7 66 q-20 -35 -61 -80q-39 -43 -84 -74q-51 -35 -111 -55q-61 -20 -137 -21q-104 0 -172 74q-70 76 -71 170l4 277q1 67 1 114q0 75 -3 119q-6 86 -29 147q-10 27 -29 48q-20 20 -33 22zM436 1190q51 14 92 53q41 37 62 76l20.5 39.5l20.5 38.5q22 37 49 61q27 25 66 25h122 l-79 -140q-106 -186 -277 -186q-16 0 -49 14q-27 13 -27 19z" />
<glyph unicode="&#xfb;" horiz-adv-x="1202" d="M90 948v35q25 18 80 35q53 16 90 16q68 0 94.5 -32.5t26.5 -100.5v-168l-2 -319v-25q0 -134 31 -190q35 -63 129 -64q170 0 282 135q6 252 6 410q0 74 -8 125q-8 55 -18 78q-16 35 -33 47q-20 16 -43 22v35l23 10q18 10 63 25q41 12 72 12q84 0 106 -37q23 -39 23 -172 v-516q0 -29 4 -69q2 -12 5 -32t3 -22q4 -27 12 -43q4 -6 9.5 -16t7.5 -14q4 -8 20 -21q18 -14 21 -14l8 -3q8 -3 14 -5q20 -4 22.5 -4t9.5 -1.5t13 -1.5t11.5 -1t7.5 -1v-36q-20 -14 -78 -33t-105 -19q-41 0 -69 15q-31 14 -47 35q-14 16 -29 53q-14 35 -16 61q-4 41 -7 66 q-20 -35 -61 -80q-39 -43 -84 -74q-51 -35 -111 -55q-61 -20 -137 -21q-104 0 -172 74q-70 76 -71 170l4 277q1 67 1 114q0 75 -3 119q-6 86 -29 147q-10 27 -29 48q-20 20 -33 22zM252 1190q41 10 86 57q49 51 80 101q35 53 69.5 94t61.5 41h33h16q27 0 53 -27 q23 -23 56 -70l57 -81q18 -29 64 -74q35 -35 67 -41q0 -6 -26 -19q-33 -14 -50 -14q-41 0 -69.5 6t-53.5 25q-27 20 -38 35q-20 25 -41 55q-16 18 -29 68l-14 45l-15 -45q-15 -46 -30 -68q-39 -59 -82 -90t-119 -31q-16 0 -49 14q-27 13 -27 19z" />
<glyph unicode="&#xfc;" horiz-adv-x="1202" d="M90 948v35q25 18 80 35q53 16 90 16q68 0 94.5 -32.5t26.5 -100.5v-168l-2 -319v-25q0 -134 31 -190q35 -63 129 -64q170 0 282 135q6 252 6 410q0 74 -8 125q-8 55 -18 78q-16 35 -33 47q-20 16 -43 22v35l23 10q18 10 63 25q41 12 72 12q84 0 106 -37q23 -39 23 -172 v-516q0 -29 4 -69q2 -12 5 -32t3 -22q4 -27 12 -43q4 -6 9.5 -16t7.5 -14q4 -8 20 -21q18 -14 21 -14l8 -3q8 -3 14 -5q20 -4 22.5 -4t9.5 -1.5t13 -1.5t11.5 -1t7.5 -1v-36q-20 -14 -78 -33t-105 -19q-41 0 -69 15q-31 14 -47 35q-14 16 -29 53q-14 35 -16 61q-4 41 -7 66 q-20 -35 -61 -80q-39 -43 -84 -74q-51 -35 -111 -55q-61 -20 -137 -21q-104 0 -172 74q-70 76 -71 170l4 277q1 67 1 114q0 75 -3 119q-6 86 -29 147q-10 27 -29 48q-20 20 -33 22zM292 1313q0 46 31 80q31 33 72 32.5t72 -32.5q31 -34 30.5 -80t-30.5 -80q-31 -33 -72 -33 t-72 33q-31 34 -31 80zM669 1313q0 46 31 80q31 33 72 32.5t71 -32.5q31 -34 31 -80t-31 -80q-31 -33 -71.5 -33t-71.5 33t-31 80z" />
<glyph unicode="&#xfd;" horiz-adv-x="1017" d="M499 1192q51 14 92 53q41 37 62 76l20.5 39.5l20.5 38.5q22 37 49 61q27 25 66 25h122l-79 -140q-106 -186 -277 -186q-16 0 -49 14q-27 13 -27 19zM10 983q27 20 78 35q55 16 92 16q68 0 99 -30q27 -27 47 -105q18 -90 194 -590q29 -80 55 -133q8 43 43 137l162 426 q29 70 29 129q0 55 -35 78v37q18 18 63.5 34.5t84.5 16.5q70 0 69 -69q0 -23 -10 -60q-10 -39 -20 -61q-4 -8 -21 -53l-418 -1004q-10 -29 -22 -55q-4 -8 -23 -54l-22 -47q-8 -16 -25 -45q-12 -23 -27 -39q-10 -12 -30 -32q-10 -10 -35 -27q-16 -10 -39 -20q-20 -8 -47 -13 q-33 -4 -55 -4q-86 0 -129 49t-43 127q0 33 2 43q8 -25 55 -41q41 -14 90 -14q164 0 211 115l94 225q4 12 17 33l10 14q-43 14 -74 41q-34 31 -43 68l-184 577q-25 72 -47 113q-35 61 -47 76q-14 18 -46 43q-16 14 -34 20q-2 0 -8.5 3t-8.5 3z" />
<glyph unicode="&#xff;" horiz-adv-x="927" d="M10 983q27 20 78 35q55 16 92 16q68 0 99 -30q27 -27 47 -105q18 -90 194 -590q29 -80 55 -133q8 43 43 137l162 426q29 70 29 129q0 55 -35 78v37q18 18 63.5 34.5t84.5 16.5q70 0 69 -69q0 -23 -10 -60q-10 -39 -20 -61q-4 -8 -21 -53l-418 -1004q-10 -29 -22 -55 q-4 -8 -23 -54l-22 -47q-8 -16 -25 -45q-12 -23 -27 -39q-10 -12 -30 -32q-10 -10 -35 -27q-16 -10 -39 -20q-20 -8 -47 -13q-33 -4 -55 -4q-86 0 -129 49t-43 127q0 33 2 43q8 -25 55 -41q41 -14 90 -14q164 0 211 115l94 225q4 12 17 33l10 14q-43 14 -74 41 q-34 31 -43 68l-184 577q-25 72 -47 113q-35 61 -47 76q-14 18 -46 43q-16 14 -34 20q-2 0 -8.5 3t-8.5 3zM258 1313q0 46 31 80q31 33 71.5 32.5t71.5 -32.5q31 -34 31 -80q0 -47 -31 -80t-72 -33t-71 33q-31 34 -31 80zM635 1313q0 46 31 80q31 33 71.5 32.5t71.5 -32.5 q31 -34 31 -80q0 -47 -31 -80t-72 -33t-71 33q-31 34 -31 80z" />
<glyph unicode="&#x131;" horiz-adv-x="571" d="M395 0h-202v8l16 690q3 68 -6 117t-25 74q-14 23 -31 39q-14 14 -24 16l-12 2v37q78 51 182 51q66 0 88 -45q20 -41 14 -127l-6 -209q-6 -209 -6 -499q0 -96 12 -154z" />
<glyph unicode="&#x152;" horiz-adv-x="1728" d="M102 641q6 201 80 360q72 156 215 252q139 94 326 95h479l350 6q20 -23 33 -76q12 -49 8 -96q-4 -45 -14 -56h-39q-10 47 -70 78q-63 33 -145 35l-174 6q-14 -227 -14 -500h321q29 0 47 7q14 6 25 14l4 6q4 0 4 -41q0 -25 -6 -43q-4 -12 -16 -29q-8 -10 -29 -20 q-18 -9 -31 -12q-14 -4 -35 -6q-16 -2 -35 -3h-32h-51q-16 0 -46 1.5t-45 1.5h-77q-3 -203 6 -480l4 -12h389q29 0 47 6q16 4 25 15l4 6q4 0 4 -41q0 -31 -15 -56q-12 -23 -28 -34q-12 -10 -47 -17q-41 -8 -47 -8h-47h-699q-98 0 -190 25q-94 25 -172 75q-84 55 -140 125 q-61 78 -94 181q-33 104 -33 235zM326 739q-4 -178 63 -321q68 -147 182 -228q115 -82 254 -81h105v30v951q0 98 -15 149h-217q-72 0 -135 -37q-70 -39 -117 -98q-52 -65 -86 -160q-34 -99 -34 -205z" />
<glyph unicode="&#x153;" horiz-adv-x="1718" d="M98 473q-3 160 62 289q63 129 182 203q117 74 262 73q98 0 187 -47q86 -45 135 -139q45 88 129 137q83 49 184 49q72 0 131 -18q61 -18 98 -47q39 -29 66 -68q25 -35 41 -76q10 -25 22 -81q6 -25 11 -70q2 -18 2 -55v-48q-43 -25 -119 -24l-498 6q6 -199 80 -311 q77 -117 227 -117q88 0 176.5 49t143.5 131l4 -16q4 -20 4 -33q0 -74 -59 -143q-61 -70 -152 -107q-92 -37 -188 -37q-70 0 -133 19q-57 16 -121 65q-59 45 -82 107q-47 -88 -150 -141q-100 -51 -219 -52q-86 0 -155 29q-72 31 -133 88q-59 57 -99 160q-35 96 -39 225z M297 573q4 -141 39 -251q37 -115 102 -181q68 -68 150 -67q98 0 164 108q63 106 61 279q-2 205 -82 340q-78 133 -203 133q-102 0 -168 -103q-65 -104 -63 -258zM985 639l445 8q0 49 -13 98q-10 41 -39 89q-25 39 -69 65q-43 25 -99 25q-96 0 -147 -76q-55 -80 -78 -209z " />
<glyph unicode="&#x178;" horiz-adv-x="1003" d="M10 1313l15 35q61 29 143 28q86 0 121 -37q47 -119 143 -303q94 -184 154 -278l10 26l25 50l170 301q51 94 2 178l14 35q63 29 115 28q47 0 108 -28q0 -35 -41 -129q-45 -102 -78 -152l-252 -405q0 -6 -1 -53.5t-1 -88.5v-168q0 -252 17 -352h-223v33q0 25 1 92.5 t1 107.5v150q0 211 -2 233q-16 16 -43 64l-197 344l-57 104q-41 76 -43 80q-12 22 -31 49q-18 29 -33 37q-15 10 -37 19zM207 1599.5q0 46.5 31 79.5t71.5 33t71.5 -33q31 -34 31 -80t-31 -79t-72 -33t-71 33q-31 33 -31 79.5zM686 1599.5q0 46.5 31 79.5t71.5 33t71.5 -33 q31 -34 31 -80t-31 -79t-71.5 -33t-71.5 33t-31 79.5z" />
<glyph unicode="&#x2c6;" horiz-adv-x="821" d="M88 1190q41 10 86 57q49 51 80 101q35 53 69.5 94t61.5 41h33h16q27 0 53 -27q23 -23 56 -70l57 -81q18 -29 64 -74q35 -35 67 -41q0 -6 -26 -19q-33 -14 -50 -14q-41 0 -69.5 6t-53.5 25q-27 20 -38 35q-20 25 -41 55q-16 18 -29 68l-14 45l-15 -45q-15 -46 -30 -68 q-39 -59 -82 -90t-119 -31q-16 0 -49 14q-27 13 -27 19z" />
<glyph unicode="&#x2da;" horiz-adv-x="1062" d="M543 1511q-84 0 -141.5 -51t-57.5 -133q0 -78 47 -125q45 -45 109 -45q84 0 143 53.5t59 132.5q0 76 -47 123q-44 45 -112 45zM526 1214q-43 0 -71.5 35t-28.5 101q0 55 26.5 79.5t63.5 24.5q41 0 72 -33q31 -34 30 -98q0 -53 -28 -82q-27 -27 -64 -27z" />
<glyph unicode="&#x2dc;" horiz-adv-x="776" d="M51 1241q72 55 129 51q37 -4 125 -32q102 -35 160 -37q102 -6 176 34q78 43 96 129q-86 -59 -151 -55q-31 2 -131 35q-92 29 -146 33q-59 2 -114 -10q-49 -12 -93 -52q-39 -35 -51 -96z" />
<glyph unicode="&#x2000;" horiz-adv-x="911" />
<glyph unicode="&#x2001;" horiz-adv-x="1822" />
<glyph unicode="&#x2002;" horiz-adv-x="911" />
<glyph unicode="&#x2003;" horiz-adv-x="1822" />
<glyph unicode="&#x2004;" horiz-adv-x="606" />
<glyph unicode="&#x2005;" horiz-adv-x="454" />
<glyph unicode="&#x2006;" horiz-adv-x="303" />
<glyph unicode="&#x2007;" horiz-adv-x="303" />
<glyph unicode="&#x2008;" horiz-adv-x="227" />
<glyph unicode="&#x2009;" horiz-adv-x="362" />
<glyph unicode="&#x200a;" horiz-adv-x="100" />
<glyph unicode="&#x2010;" horiz-adv-x="616" d="M59 436v131q0 -8 222 -8h102h86q12 0 61 6q25 2 35 10q-6 -35 -18 -55q-14 -25 -29 -37q-16 -14 -41 -24q-29 -12 -47 -15q-16 -2 -53 -6q-18 -2 -58 -2h-57h-90q-18 0 -35.5 1t-28 1h-12.5q-31 0 -37 -2z" />
<glyph unicode="&#x2011;" horiz-adv-x="616" d="M59 436v131q0 -8 222 -8h102h86q12 0 61 6q25 2 35 10q-6 -35 -18 -55q-14 -25 -29 -37q-16 -14 -41 -24q-29 -12 -47 -15q-16 -2 -53 -6q-18 -2 -58 -2h-57h-90q-18 0 -35.5 1t-28 1h-12.5q-31 0 -37 -2z" />
<glyph unicode="&#x2013;" horiz-adv-x="923" d="M59 438v131q0 -8 529 -8h102h84q14 0 64 6q25 2 34 11q-6 -27 -18 -53.5t-29 -39.5q-16 -14 -41 -24q-29 -12 -47 -15l-55 -6q-18 -2 -55 -2h-58h-243h-78h-62.5t-45 1t-31 1h-13.5q-31 0 -37 -2z" />
<glyph unicode="&#x2014;" horiz-adv-x="1388" d="M53 438v131q0 -8 1000 -8h102h84q14 0 64 6q25 2 34 11q-6 -27 -18 -53.5t-29 -39.5q-16 -14 -41 -24q-29 -12 -47 -15q-16 -2 -53 -6q-18 -2 -57 -2h-58h-479h-162h-130t-91 1t-60 1h-22q-31 0 -37 -2z" />
<glyph unicode="&#x2018;" horiz-adv-x="450" d="M82 1186q0 80 68 178q66 96 192 178l37 -49q-135 -129 -135 -225q0 -51 16 -72q15 -18 43 -18q6 -49 -27 -86q-35 -37 -77 -37q-57 0 -88 35q-29 30 -29 96z" />
<glyph unicode="&#x2019;" horiz-adv-x="450" d="M70 1104q135 129 135 225q0 51 -17 72q-15 18 -43 18q-6 49 27 86t78 37q57 0 88 -35q29 -31 29 -96q0 -80 -68 -178q-66 -96 -193 -178z" />
<glyph unicode="&#x201a;" horiz-adv-x="450" d="M70 -246q135 129 135 226q0 90 -60 90q-6 49 27 86t78 37q57 0 88 -35q29 -31 29 -97q0 -80 -68 -178q-66 -96 -193 -178z" />
<glyph unicode="&#x201c;" horiz-adv-x="811" d="M84 1186q0 80 68 178q66 96 192 178l37 -49q-135 -129 -135 -225q0 -51 16 -72q15 -18 43 -18q6 -49 -26.5 -86t-77.5 -37q-57 0 -88 35q-29 30 -29 96zM442 1186q0 80 68 178q66 96 192 178l37 -49q-135 -129 -135 -225q0 -51 17 -72q15 -18 43 -18q6 -49 -27 -86 q-35 -37 -78 -37q-57 0 -88 35q-29 30 -29 96z" />
<glyph unicode="&#x201d;" horiz-adv-x="811" d="M70 1104q135 129 135 225q0 51 -17 72q-15 18 -43 18q-6 49 27 86t78 37q57 0 88 -35q29 -31 29 -96q0 -80 -68 -178q-66 -96 -193 -178zM428 1104q135 129 135 225q0 51 -16 72q-15 18 -43 18q-6 49 26 86q35 37 78 37q57 0 88 -35q29 -31 29 -96q0 -80 -68 -178 q-66 -96 -192 -178z" />
<glyph unicode="&#x201e;" horiz-adv-x="811" d="M74 -246q135 129 135 226q0 90 -59 90q-6 49 26.5 86t77.5 37q57 0 88 -35q29 -31 29 -97q0 -80 -68 -178q-66 -96 -192 -178zM432 -246q135 129 135 226q0 90 -59 90q-6 49 27 86q35 37 77 37q57 0 88 -35q29 -31 29 -97q0 -80 -67 -178q-66 -96 -193 -178z" />
<glyph unicode="&#x2022;" horiz-adv-x="866" d="M178 506q0 104 74 178t180 74q104 0 178 -74q76 -76 76 -178q0 -106 -73.5 -180t-180 -74t-180.5 74t-74 180z" />
<glyph unicode="&#x2026;" horiz-adv-x="1355" d="M158 84q0 39 32 76q31 33 78 33q45 0 76 -33q33 -37 33 -76q0 -41 -33 -78q-31 -33 -76 -33q-47 0 -78 33q-32 37 -32 78zM578 84q0 39 32 76q31 33 78 33t78 -33t31 -76t-31 -78q-31 -33 -78 -33t-78 33q-32 37 -32 78zM987 84q0 47 33 78t78 31t76 -33q33 -37 32 -76 q0 -41 -32 -78q-31 -33 -76 -33t-78 33t-33 78z" />
<glyph unicode="&#x202f;" horiz-adv-x="362" />
<glyph unicode="&#x2039;" horiz-adv-x="753" d="M80 506l41 41l268 319q45 53 90 86q41 29 78 33q25 2 57 -6q20 -6 45 -23q-20 -6 -43 -26q-25 -20 -38 -39l-15 -19l-227 -303q-14 -18 -41 -43l-27 -20l27 -21q27 -25 41 -43l227 -303l15 -16q14 -18 38 -39q27 -23 43 -29q-29 -20 -45 -24q-27 -6 -57 -4q-37 4 -78 32 q-45 33 -90 86l-268 320z" />
<glyph unicode="&#x203a;" horiz-adv-x="753" d="M82 55q29 -20 45 -24q27 -6 57 -4q37 4 78 32q45 33 90 86l269 320l41 41l-41 41l-269 319q-45 53 -90 86q-41 29 -78 33q-25 2 -57 -6q-20 -6 -45 -23q20 -6 43 -26q25 -20 39 -39l14 -19l228 -303q14 -18 40 -43l27 -20l-27 -21q-27 -25 -40 -43l-228 -303l-14 -16 q-14 -18 -39 -39q-27 -23 -43 -29z" />
<glyph unicode="&#x2044;" horiz-adv-x="1042" d="M139 0h-145l711 1026q188 283 190 324q39 31 82 30q61 0 61 -41q0 -35 -39 -92q-45 -66 -57 -78l-19 -26l-66.5 -94.5l-100.5 -141.5l-371 -532q-188 -274 -246 -375z" />
<glyph unicode="&#x205f;" horiz-adv-x="454" />
<glyph unicode="&#x20ac;" horiz-adv-x="1181" d="M25 731l24 131q0 -6 127 -6q55 236 227 377q170 139 414 139q190 0 272 -67.5t9 -174.5q-2 25 -39 52q-31 25 -109 47q-68 20 -157 20q-176 0 -297 -112q-123 -114 -160 -283h385h102h86q12 0 62 6q25 2 35 10q-8 -41 -17 -55q-12 -22 -31 -37q-16 -14 -40 -24 q-29 -12 -48 -15q-16 -2 -53 -6q-18 -2 -57 -2h-58h-378q0 -61 10 -164h264h102h86q12 0 62 6q25 2 35 11q-6 -35 -17 -54q-12 -23 -30 -38q-16 -14 -41 -25q-29 -12 -47 -14l-54 -7q-18 -2 -57 -2h-57h-222q104 -354 461 -354q35 0 74 8q45 10 108 37q57 25 107 74 q3 -117 -92 -178q-92 -59 -260 -60q-240 0 -387 127q-152 129 -197 348h-106q-31 0 -37 -2l20 131q37 -4 105 -4q-2 16 -2 74q0 51 4 88h-95q-30 0 -36 -2z" />
<glyph unicode="&#x2122;" horiz-adv-x="1640" d="M72 1292l4 62q68 0 133 108h82l-17 -108h129q27 0 46 6q12 4 22 14l6 6q18 -53 -12.5 -90t-93.5 -37h-7.5t-15.5 1t-22 1h-52q0 -20 -1 -70t-1 -81v-139v-39q0 -2 1 -12.5t1 -18.5q0 -27 2 -33q4 -12 9 -22q6 -18 14 -23l18 -12q8 -4 29 -8q39 -4 86 12t57 33 q14 -61 -32 -119q-47 -55 -133 -55q-106 0 -148 53q-39 51 -39 164q0 14 4 137t4 137q0 77 -12 92q-16 20 -26.5 26.5t-22.5 12.5q-4 2 -12 2zM551 1292v41q65 37 129 37q49 0 65 -31q16 -33 11 -86q96 121 235 121q59 0 104.5 -34.5t59.5 -86.5q92 121 236 121 q72 0 118 -49t50 -117v-88q0 -4 -1.5 -30.5t-1.5 -49.5v-92q0 -203 17 -262h-150q-6 39 -4 195q2 109 2 196q4 92 -18 133q-20 39 -78 39q-88 0 -164 -65q0 -37 -2 -86t-2 -123q0 -209 19 -289h-150q-4 78 -4 123v145q0 31 1 73t1 50q0 94 -20.5 133t-75.5 39 q-104 0 -176 -84q0 -186 4 -370q0 -23 12 -109h-156l9 459q0 53 -11 82q-12 35 -24 47q-10 10 -25 14z" />
<glyph unicode="&#xfb01;" horiz-adv-x="1212" d="M90 942l10 62l25 6q25 6 47 28q27 27 29 62q3 55 18 110q16 59 51 117q39 66 88 109q53 47 139.5 77.5t194.5 30.5q63 0 137 -22.5t129.5 -71.5t55.5 -113q0 -49 -21 -75q-23 -29 -53.5 -35t-62.5 0q-29 6 -58 26l2 11q2 8 2 24q-4 51 -61 94q-61 45 -148 45 q-106 0 -172 -71q-63 -70 -63 -176q0 -144 -6 -172h153q27 0 45 6q20 6 23 12l4 6q4 0 4 -39q0 -18 -8 -43q-4 -16 -21 -30q-8 -8 -28 -19q-18 -9 -37 -12q-6 0 -19.5 -2t-19.5 -4h-37h-33q-20 0 -26 2v-150q0 -596 33 -735h-209v29q0 35 2 100q2 35 3 110.5t1 114.5 q2 86 2 205q0 274 -27 309q-25 31 -43 47q-25 20 -33 23zM776 946v37q82 51 182 51q35 0 60 -14q22 -12 31 -37t12 -55q4 -31 0 -66l-6 -209q-6 -209 -6 -499q0 -95 12 -154h-203v8l16 690q2 53 -4 101q-8 55 -16 71.5t-25 40.5q-10 16 -26 25q-12 6 -19 8z" />
<glyph unicode="&#xfb02;" horiz-adv-x="1243" d="M92 942l10 62l25 6q25 6 47 28q27 27 29 62q3 55 18 110q16 59 51 117q39 66 88 109q53 47 139.5 77.5t194.5 30.5q172 0 326 -71q18 -8 33 -23q12 -12 18 -25q8 -16 8 -39v-43q0 -6 -3 -26.5t-3 -32.5t-1 -35.5t-3 -34.5q-12 -249 -12 -589q0 -319 10 -539q0 -25 12 -86 h-205v31q4 516 3 811l-3 428q0 23 -4 51q-37 37 -112.5 71.5t-141.5 34.5q-106 0 -172 -71q-63 -70 -63 -176q0 -144 -6 -172h198q27 0 45 6q20 6 23 12l4 6q4 0 4 -39q0 -35 -16 -57q-20 -27 -41 -35t-60 -14q-37 -6 -61 -6q-35 0 -57.5 2t-38.5 2v-150q0 -596 33 -735 h-209v29q0 35 2 100q2 35 3 110.5t1 114.5q2 86 2 205q0 274 -27 309q-25 31 -43 47q-25 20 -33 23z" />
<glyph unicode="&#xfb03;" horiz-adv-x="1914" d="M92 942l10 62l25 6q25 6 47 28q27 27 29 62q2 51 16 106q12 53 43 107q29 51 78 94q47 41 123 66q78 25 176 24q102 0 188 -33q84 -31 142 -102q129 182 401 182q63 0 137 -22.5t129.5 -71.5t55.5 -113q0 -58 -31 -86q-33 -29 -76 -28q-51 0 -88 30q4 0 4 27q0 49 -57 98 q-59 49 -152 49q-106 0 -172 -71q-63 -70 -63 -176q0 -144 -6 -172h153q27 0 45 6q20 6 23 12l4 6q4 0 4 -39q0 -111 -164 -110q-4 0 -16.5 1t-20.5 1h-28q0 -733 32 -885h-209v29q0 35 3 100q2 98 4 225q2 86 2 205q0 274 -27 309q-25 31 -43 47q-25 20 -33 23l-12 4l10 62 l25 6q27 8 47 28q27 27 29 62q6 76 36 166q-31 51 -110 84q-82 33 -166 32q-111 0 -182 -51q-76 -53 -76 -151q0 -144 -6 -172h133q27 0 45 6q16 6 22 12l5 6q4 0 4 -39t-15 -61q-12 -20 -43 -31q-27 -8 -53 -12q-16 -2 -55 -2q-35 0 -43 -2v-150q0 -596 33 -735h-209v29 q0 35 2 100q2 35 3 110.5t1 114.5q2 86 2 205q0 274 -27 309q-25 31 -43 47q-25 20 -33 23zM1454 946v37q82 51 182 51q59 0 82 -34.5t23 -98.5v-14l-2 -2q-2 -2 -2 -11q0 -4 -2 -14t-2 -18q0 -4 -1 -29t-1 -45q0 -16 -1 -57t-1 -68q0 -20 -1.5 -87t-1.5 -114v-288 q0 -88 13 -154h-203l16 698q0 61 -10 117q-8 45 -22 74q-10 20 -29 39q-12 12 -25 16q-6 2 -12 2z" />
<glyph unicode="&#xfb04;" horiz-adv-x="1914" d="M1450 1458v37l20 12q31 18 61 27q43 12 86 12q66 0 97 -37q29 -35 33 -110q1 -18 0 -39q0 -62 -7 -146q-12 -249 -12 -589q0 -319 10 -539q0 -18 13 -86h-205v31q3 359 3 565q0 129 -1 248l-2 430q0 86 -25 131q-24 47 -71 53zM764 942l12 -4q8 -2 33 -23q18 -16 43 -47 q27 -35 27 -309q0 -119 -2 -205q0 -39 -1 -114.5t-3 -110.5q-2 -66 -2 -100v-29h209q-33 145 -33 754v133h65q23 0 47.5 -1t26.5 -1q156 0 156 108l-4 39l-4 -6q-6 -6 -23 -12q-18 -6 -45 -6h-225q4 12 4 47v20l-4 142q0 8 -1 15q0 187 146 187q40 0 68 -24q27 -23 32 -60 q27 -10 54 -10q41 0 65 27q25 29 25 63q0 65 -62 98q-59 33 -139 33q-41 0 -84 -12q-47 -14 -86 -41q-51 -37 -80 -76q-33 -45 -61 -121q-25 -66 -35 -170q-6 -63 -37 -90q-33 -31 -72 -32zM92 942l12 -4q8 -2 33 -23q18 -16 43 -47q27 -35 27 -309q0 -119 -2 -205 q0 -39 -1 -114.5t-3 -110.5q-2 -66 -2 -100v-29h209q-33 145 -33 754v133h65q23 0 47.5 -1t26.5 -1q156 0 156 108l-4 39l-4 -6q-6 -6 -23 -12q-18 -6 -45 -6h-225q4 12 4 47v20l-4 142q0 8 -1 15q0 187 146 187q40 0 68 -24q27 -23 32 -60q27 -10 54 -10q41 0 65 27 q25 29 25 63q0 65 -62 98q-59 33 -139 33q-41 0 -84 -12q-47 -14 -86 -41q-51 -37 -80 -76q-33 -45 -61 -121q-25 -66 -35 -170q-6 -63 -37 -90q-33 -31 -72 -32z" />
<glyph horiz-adv-x="407" />
</font>
</defs>
</svg>
